<svg width="25" height="29" viewBox="0 0 25 29" fill="none" xmlns="http://www.w3.org/2000/svg">
<mask id="mask0_186_49" style="mask-type:alpha" maskUnits="userSpaceOnUse" x="0" y="0" width="25" height="29">
<rect x="0.325989" y="0.572266" width="24" height="28" fill="#D9D9D9"/>
</mask>
<g mask="url(#mask0_186_49)">
<path d="M2.32599 22.7389V20.4056H12.326V22.7389H2.32599ZM2.32599 16.9056V14.5723H7.32599V16.9056H2.32599ZM2.32599 11.0723V8.73893H7.32599V11.0723H2.32599ZM20.926 22.7389L17.076 18.2473C16.676 18.5778 16.2385 18.8257 15.7635 18.991C15.2885 19.1563 14.8093 19.2389 14.326 19.2389C12.9427 19.2389 11.7635 18.6702 10.7885 17.5327C9.81349 16.3952 9.32599 15.0195 9.32599 13.4056C9.32599 11.7917 9.81349 10.416 10.7885 9.27852C11.7635 8.14102 12.9427 7.57227 14.326 7.57227C15.7093 7.57227 16.8885 8.14102 17.8635 9.27852C18.8385 10.416 19.326 11.7917 19.326 13.4056C19.326 13.9695 19.2552 14.5285 19.1135 15.0827C18.9718 15.6368 18.7593 16.1473 18.476 16.6139L22.326 21.1056L20.926 22.7389ZM14.326 16.9056C15.1593 16.9056 15.8677 16.5653 16.451 15.8848C17.0343 15.2042 17.326 14.3778 17.326 13.4056C17.326 12.4334 17.0343 11.607 16.451 10.9264C15.8677 10.2459 15.1593 9.9056 14.326 9.9056C13.4927 9.9056 12.7843 10.2459 12.201 10.9264C11.6177 11.607 11.326 12.4334 11.326 13.4056C11.326 14.3778 11.6177 15.2042 12.201 15.8848C12.7843 16.5653 13.4927 16.9056 14.326 16.9056Z" fill="black"/>
</g>
</svg>
