<svg width="201" height="22" viewBox="0 0 201 22" fill="none" xmlns="http://www.w3.org/2000/svg">
<path d="M27.007 7.39132V7.53338H26.3251C26.344 7.62808 26.3535 7.72278 26.3535 7.81748C26.3535 7.91218 26.3535 8.00689 26.3535 8.10159H21.3817C21.3817 8.34781 21.2585 8.53722 21.0123 8.6698C20.8987 8.70768 20.8134 8.72662 20.7566 8.72662H14.9609C14.8851 8.72662 14.8093 8.72662 14.7336 8.72662C14.6578 8.70768 14.5821 8.68874 14.5063 8.6698H9.87536V8.81185H12.3755C12.3566 8.90656 12.3471 9.00126 12.3471 9.09596C12.3471 9.19066 12.3471 9.28536 12.3471 9.38007H11.3527C11.3338 9.41795 11.3243 9.4653 11.3243 9.52212C11.3243 9.57894 11.3243 9.62629 11.3243 9.66417H11.4095V9.94828H10.9834V10.5165H12.3471V10.6585H7.74457V10.9426H9.19351V11.5109H12.1198V11.6529H10.9266V11.795H10.1595V12.3632H12.3471C12.366 12.4389 12.3755 12.5147 12.3755 12.5905C12.3755 12.6473 12.3755 12.7136 12.3755 12.7893H13.171V12.9314H9.50603V13.2155H8.68212V13.3575H12.3755V13.386H18.0576C18.4175 13.386 18.6258 13.5659 18.6827 13.9258H22.8874V14.3519H22.6885L22.6317 14.9201H22.3192L22.2908 15.2042H23.0295C23.0295 15.2611 23.02 15.3084 23.0011 15.3463H22.8306C22.8117 15.3842 22.8022 15.4315 22.8022 15.4883H23.7397L23.6545 15.9145H22.7738C22.7738 15.9334 22.7643 15.9524 22.7454 15.9713C22.7454 15.9903 22.7454 16.0187 22.7454 16.0566H22.5181C22.4991 16.1323 22.4707 16.2081 22.4328 16.2838C22.4139 16.3407 22.395 16.407 22.376 16.4827H22.717C22.717 16.5017 22.698 16.549 22.6601 16.6248H22.0919C22.054 16.7195 22.0067 16.8142 21.9499 16.9089C21.912 17.0036 21.8646 17.0983 21.8078 17.193H22.376L22.1203 17.6191H22.376L22.0919 18.0453H21.9215C21.8457 18.14 21.7605 18.2347 21.6658 18.3294C21.59 18.4241 21.5048 18.5188 21.4101 18.6135H21.1828C21.1638 18.6325 21.1449 18.6514 21.126 18.6703C21.107 18.6893 21.0786 18.7177 21.0407 18.7556H19.8191L19.677 18.8976H25.3876C25.2739 18.9923 25.1603 19.087 25.0466 19.1817C24.933 19.2764 24.8099 19.3711 24.6773 19.4658H24.3648C24.1754 19.5984 23.9481 19.7405 23.6829 19.892H17.6883C17.4989 20.0056 17.3 20.1098 17.0917 20.2045C16.8833 20.2803 16.675 20.3655 16.4666 20.4602H21.1544C21.0976 20.4791 21.0313 20.4981 20.9555 20.517C20.8987 20.536 20.8324 20.5644 20.7566 20.6023H19.6202C19.5444 20.6212 19.4687 20.6401 19.3929 20.6591C19.3172 20.678 19.2414 20.7064 19.1656 20.7443H17.1201C16.4382 20.9337 15.7374 21.0758 15.0177 21.1705H15.4723C15.1692 21.2083 14.8567 21.2368 14.5347 21.2557C14.2127 21.2746 13.8907 21.2841 13.5687 21.2841C13.2089 21.2841 12.8585 21.2746 12.5176 21.2557C12.1956 21.2368 11.8736 21.2083 11.5516 21.1705H11.097C10.3394 21.0758 9.63861 20.9337 8.99464 20.7443H11.0402C10.9644 20.7064 10.8887 20.678 10.8129 20.6591C10.7561 20.6401 10.6898 20.6212 10.614 20.6023H11.7789L11.3811 20.4602H6.69338C6.50397 20.3655 6.3051 20.2803 6.09676 20.2045C5.90735 20.1098 5.71795 20.0056 5.52854 19.892H11.5516C11.4379 19.8162 11.3243 19.7499 11.2107 19.6931C11.097 19.6174 10.9928 19.5416 10.8981 19.4658H11.2107C10.9834 19.2954 10.7656 19.106 10.5572 18.8976H4.81828C4.79934 18.8597 4.7804 18.8313 4.76146 18.8124C4.74252 18.7934 4.71411 18.7745 4.67623 18.7556H5.92629C5.90735 18.7177 5.87894 18.6893 5.84106 18.6703C5.82212 18.6514 5.80318 18.6325 5.78424 18.6135H6.01152C5.84106 18.4241 5.68007 18.2347 5.52854 18.0453H5.69901L5.44331 17.6191H5.18762L4.93192 17.193H4.36371L4.10801 16.6248H4.70464L4.64781 16.4827H4.27848C4.25954 16.407 4.2406 16.3407 4.22166 16.2838C4.20272 16.2081 4.1743 16.1323 4.13642 16.0566H4.36371L4.30689 15.9145H5.18762C5.16868 15.8387 5.14974 15.7724 5.13079 15.7156C5.11185 15.6399 5.09291 15.5641 5.07397 15.4883H4.6194C4.60046 15.4505 4.59099 15.4031 4.59099 15.3463H4.10801C4.08907 15.3084 4.0796 15.2611 4.0796 15.2042H4.10801C4.10801 15.1285 4.08907 15.0338 4.05119 14.9201H2.43179L2.34656 14.3519H4.53417C4.51523 14.2762 4.50576 14.2099 4.50576 14.153C4.50576 14.0773 4.49629 14.0015 4.47735 13.9258H5.01715C5.01715 13.8689 5.01715 13.8121 5.01715 13.7553C5.01715 13.6985 5.00768 13.6417 4.98874 13.5848V13.3575H1.29536V13.2155H2.11927V12.9314H5.78424V12.7893H4.98874C4.98874 12.7136 4.97927 12.6473 4.96033 12.5905C4.96033 12.5147 4.96033 12.4389 4.96033 12.3632H2.77272V11.795H3.5398V11.6529H4.73305V11.5109H1.80675V10.9426H0.357814V10.6585H4.96033V10.5165H3.59662V9.94828H4.02278V9.66417H3.93755V9.38007H4.96033V8.81185H2.48861V8.6698H7.94344V8.52775C7.96238 8.45199 7.97185 8.38569 7.97185 8.32887C7.97185 8.25311 7.97185 8.17735 7.97185 8.10159H6.46609C6.46609 8.00689 6.46609 7.91218 6.46609 7.81748C6.48503 7.72278 6.50397 7.62808 6.52291 7.53338H7.43205C7.45099 7.4955 7.46046 7.44814 7.46046 7.39132H1.57947C1.59841 7.35344 1.60788 7.30609 1.60788 7.24927C1.60788 7.19245 1.61735 7.1451 1.63629 7.10722H6.80702L6.94907 6.53901H5.78424L5.86947 6.2549H3.96596L4.02278 6.11285H4.64781C4.66676 6.07497 4.6857 6.02761 4.70464 5.97079C4.72358 5.91397 4.74252 5.86662 4.76146 5.82874H4.44894L4.56258 5.54463H4.70464C4.74252 5.46887 4.7804 5.40258 4.81828 5.34576C4.85616 5.27 4.88457 5.19424 4.90351 5.11848H4.93192L5.18762 4.69232H5.10238C5.14027 4.61656 5.17815 4.55026 5.21603 4.49344C5.27285 4.41768 5.32967 4.34192 5.38649 4.26616H5.15921C5.23497 4.17146 5.31073 4.07675 5.38649 3.98205C5.46225 3.86841 5.53801 3.77371 5.61378 3.69795H5.35808C5.37702 3.66007 5.39596 3.63165 5.4149 3.61271C5.43384 3.59377 5.45278 3.57483 5.47172 3.55589H5.18762L5.32967 3.41384H5.27285C5.31073 3.37596 5.33914 3.34755 5.35808 3.32861C5.37702 3.30967 5.39596 3.29073 5.4149 3.27179H4.90351C4.94139 3.23391 4.98874 3.18655 5.04556 3.12973C5.10238 3.07291 5.15921 3.02556 5.21603 2.98768H5.89788C5.99258 2.91192 6.08729 2.84563 6.18199 2.78881C6.27669 2.71304 6.37139 2.63728 6.46609 2.56152H6.15358L6.38086 2.41947H5.89788C5.93576 2.38159 5.97364 2.35318 6.01152 2.33424C6.0494 2.3153 6.08728 2.29636 6.12517 2.27742H7.60252C7.7351 2.20165 7.86768 2.13536 8.00027 2.07854C8.13285 2.00278 8.26543 1.92702 8.39801 1.85126H8.31278C8.42642 1.79444 8.54007 1.74708 8.65371 1.7092C8.76735 1.65238 8.88099 1.60503 8.99464 1.56715H9.53444C9.59126 1.52927 9.64808 1.50086 9.7049 1.48192C9.78066 1.46298 9.85642 1.44404 9.93219 1.4251H9.07987C9.64808 1.21675 10.2542 1.0747 10.8981 0.998938H11.6652C12.4039 0.885296 13.1805 0.828475 13.9949 0.828475C14.7904 0.828475 15.5575 0.885296 16.2962 0.998938H15.5575C16.1825 1.0747 16.8076 1.21675 17.4326 1.4251H18.2849C18.3607 1.44404 18.427 1.46298 18.4838 1.48192C18.5595 1.50086 18.6353 1.52927 18.7111 1.56715H18.1713C18.4554 1.66185 18.6921 1.75656 18.8815 1.85126H18.9668C19.1183 1.92702 19.2603 2.00278 19.3929 2.07854C19.5255 2.13536 19.6581 2.20165 19.7907 2.27742H18.3417C18.3796 2.29636 18.4175 2.3153 18.4554 2.33424C18.4932 2.35318 18.5311 2.38159 18.569 2.41947H19.052C19.0899 2.43841 19.1277 2.45735 19.1656 2.47629C19.2035 2.49523 19.2319 2.52364 19.2509 2.56152H19.5634L20.1316 2.98768H19.4213L19.7623 3.27179H20.2736L20.4441 3.41384H20.4725L20.6146 3.55589H20.8987L21.0407 3.69795H21.2964C21.3722 3.77371 21.4479 3.86841 21.5237 3.98205C21.5995 4.07675 21.6752 4.17146 21.751 4.26616H21.9499C22.0067 4.34192 22.054 4.41768 22.0919 4.49344C22.1487 4.55026 22.1961 4.61656 22.234 4.69232H22.3192C22.3571 4.76808 22.395 4.84384 22.4328 4.9196C22.4707 4.97642 22.5086 5.04271 22.5465 5.11848H22.4897C22.5276 5.19424 22.5654 5.27 22.6033 5.34576C22.6412 5.40258 22.6696 5.46887 22.6885 5.54463H22.5465L22.6317 5.82874H22.9442L23.0295 6.11285H22.4044C22.4044 6.13179 22.4044 6.15073 22.4044 6.16967C22.4234 6.18861 22.4328 6.21702 22.4328 6.2549H24.3364C24.3364 6.33066 24.3553 6.42536 24.3932 6.53901H21.8078L21.893 7.10722H23.5409L23.5693 7.39132H27.007ZM13.9665 6.53901H15.9836C15.6806 6.42536 15.3397 6.36854 14.9609 6.36854C14.5821 6.36854 14.2506 6.42536 13.9665 6.53901ZM18.8815 7.90271C18.8626 7.82695 18.8436 7.76066 18.8247 7.70384C18.8058 7.64702 18.7774 7.5902 18.7395 7.53338H19.4213L19.3361 7.39132H15.9268C15.9079 7.3345 15.8795 7.28715 15.8416 7.24927C15.8037 7.19245 15.7658 7.1451 15.7279 7.10722H9.27874C9.2598 7.1451 9.23139 7.19245 9.19351 7.24927C9.17457 7.28715 9.14616 7.3345 9.10828 7.39132H14.9893L14.9325 7.53338H14.0233C13.9854 7.60914 13.957 7.70384 13.9381 7.81748C13.9191 7.91218 13.9002 8.00689 13.8813 8.10159H18.9668L18.8815 7.90271ZM15.5291 13.9258H11.8925L11.9777 14.3519H9.79013C9.82801 14.4656 9.86589 14.5697 9.90378 14.6644C9.94166 14.7402 9.98901 14.8254 10.0458 14.9201H11.6652C11.7031 14.977 11.741 15.0338 11.7789 15.0906C11.8168 15.1285 11.8546 15.1664 11.8925 15.2042H11.8357L11.9777 15.3463H12.4607C12.4986 15.3652 12.5365 15.3936 12.5744 15.4315C12.6123 15.4505 12.6501 15.4694 12.688 15.4883H13.1426C13.4646 15.6588 13.8528 15.744 14.3074 15.744C14.762 15.744 15.1408 15.6588 15.4438 15.4883H14.5063L14.7336 15.3463H14.904L15.0745 15.2042H14.3358C14.3737 15.1664 14.4116 15.1285 14.4495 15.0906C14.5063 15.0338 14.5442 14.977 14.5631 14.9201H14.8756C14.9893 14.7497 15.084 14.5603 15.1597 14.3519H15.3586L15.4154 14.2099C15.4533 14.0962 15.4912 14.0015 15.5291 13.9258ZM45.8829 14.3519V14.494H48.0989V14.7781H47.9853V15.2042H42.1043V15.3463H43.1271V15.7724H46.2522V16.0566H44.6328V16.6248H44.5476V16.7668H42.6725V17.193H45.4568V17.335H45.5704V17.7612H45.8545V18.3294H40.3713V18.7556H46.167V19.0397H44.2351V19.4658H43.9794V19.7499H44.6328V20.034H44.2067V20.3181H45.2011L45.1158 20.6023H46.4511C46.4132 20.6591 46.3659 20.7159 46.3091 20.7727C46.2712 20.8106 46.2238 20.8485 46.167 20.8864H46.8205C46.7258 20.9621 46.5932 21 46.4227 21H40.8542C40.6838 21 40.5512 20.9621 40.4565 20.8864H39.803C39.6705 20.8295 39.5758 20.7348 39.5189 20.6023H38.1836L38.0984 20.3181H37.104V20.034H37.5302V19.7499H36.8768V19.4658H37.1324V19.0397H39.0644V18.7556H33.922V19.0397H31.564V19.4658H33.1834V19.7499H32.7856V20.034H34.263V20.3181H32.672L32.5868 20.6023H33.2118C33.136 20.7348 33.0508 20.8295 32.9561 20.8864H32.2742C32.1795 20.9621 32.0469 21 31.8765 21H26.308C26.1186 21 25.9766 20.9621 25.8818 20.8864H26.5637C26.469 20.8295 26.3838 20.7348 26.308 20.6023H25.6546C25.5977 20.5075 25.5693 20.4128 25.5693 20.3181H27.1603V20.034H25.683V19.7499H26.0807V19.4658H24.4613V19.0397H26.8194V18.7556H28.1831V18.3294H23.8079V17.7612H25.4273V17.335H26.5637V17.193H25.7682V16.7668H24.4329V16.6248H24.717V16.0566H25.6262V15.7724H26.0523V15.3463H24.0068V15.2042H29.2627V14.7781H22.8419V14.494H28.8934V14.3519H25.9387V13.9258H27.6433V13.7837H27.9842V13.6417H27.8422V13.0734H25.0295V12.6473H25.9671V12.5052H25.7114V12.0791H25.825V11.937H25.8534V11.6529H25.8818V11.5109H25.5125V11.3688H24.4045V10.9426H24.7738V10.5165H24.2056V10.0903H25.6262V9.52212H25.3136V9.23801H23.2397V9.09596H26.5637V8.81185H27.3592V8.6698H19.6883V8.52775H24.2056V8.38569H25.825V7.95954H22.9271V7.39132H22.1317V6.96516H25.5409V6.39695H25.825V5.97079H27.6433V5.82874H26.0807V5.26053H27.3592V4.97642H25.825V4.83437H25.2852V4.55026H24.4613V4.26616H23.4669V3.69795H25.2568V3.27179H26.3364V2.84563H25.825V2.56152H25.1148V2.41947H25.5125V2.13536H25.4273V1.87967C25.4273 1.74709 25.4557 1.64291 25.5125 1.56715H27.3308C27.3497 1.51033 27.3781 1.46298 27.416 1.4251C27.4539 1.36828 27.4918 1.32093 27.5297 1.28305H31.9049C32.0185 1.1694 32.1795 1.11258 32.3879 1.11258H43.2975C43.4869 1.11258 43.6479 1.1694 43.7805 1.28305H48.1558C48.1936 1.32093 48.2315 1.36828 48.2694 1.4251C48.3262 1.46298 48.3641 1.51033 48.383 1.56715H44.7181C44.756 1.68079 44.7749 1.78497 44.7749 1.87967V2.13536H44.917V2.41947H45.3147V2.56152H44.5476V2.84563H44.2067V3.27179H45.3147V3.69795H42.6441V4.26616H45.7124V4.55026H43.4964V4.83437H44.4056V4.97642H43.951V5.26053H46.0818V5.82874H42.9566V5.97079H45.3715V6.39695H44.9454V6.96516H42.6725V7.39132H41.735V7.95954H44.6328V8.38569H43.0134V8.52775H38.4962V8.6698H46.167V8.81185H45.3715V9.09596H42.0475V9.23801H44.1215V9.52212H44.434V10.0903H43.0134V10.5165H43.5817V10.9426H43.2123V11.3688H44.3203V11.5109H44.6897V11.6529H44.6613V11.937H44.6328V12.0791H44.5192V12.5052H44.7749V12.6473H43.8373V13.0734H46.65V13.6417H46.792V13.7837H46.4511V13.9258H44.7465V14.3519H45.8829ZM29.2343 6.96516V7.39132H30.0298V7.84589H34.6323V7.39132H35.5699V6.96516H37.8427V6.39695H38.2689V5.97079H35.854V5.82874H38.9791V5.26053H36.8483V4.97642H37.3029V4.83437H36.3938V4.55026H38.6098V4.26616H35.5415V3.69795H38.212V3.27179H37.104V2.84563H37.445V2.56152H38.212V2.41947H37.8143V2.13536H37.6722V1.87967C37.6722 1.78497 37.6912 1.68079 37.7291 1.56715H41.394C41.4319 1.51033 41.4698 1.46298 41.5077 1.4251C41.5456 1.36828 41.5834 1.32093 41.6213 1.28305H34.0641C34.1588 1.35881 34.2346 1.45351 34.2914 1.56715H32.4731C32.511 1.62397 32.5299 1.72814 32.5299 1.87967V2.13536H32.6152V2.41947H32.2174V2.56152H32.9277V2.84563H33.4391V3.27179H32.3595V3.69795H30.5696V4.26616H31.564V4.55026H32.3879V4.83437H32.9277V4.97642H34.4619V5.26053H33.1834V5.82874H34.746V5.97079H32.9277V6.39695H32.6436V6.96516H29.2343ZM40.9963 14.7781V14.494H38.7803V14.3519H37.6438V14.0962H33.0413V14.3519H35.996V14.494H29.9446V14.7781H36.3654V15.2042H40.8826V14.7781H40.9963ZM39.1496 15.7724H36.0244V15.3463H35.0017V15.2042H31.1094V15.3463H33.155V15.7724H32.7288V16.0566H31.8197V16.6248H31.5356V16.7668H32.8709V17.193H33.6664V17.335H32.5299V17.7612H30.9105V18.3294H38.7519V17.7612H38.4677V17.335H38.3541V17.193H35.5699V16.7668H37.445V16.6248H37.5302V16.0566H39.1496V15.7724ZM68.4256 19.4658L68.6245 20.034H68.1415L68.1983 20.1761C68.1983 20.195 68.1983 20.2234 68.1983 20.2613C68.2173 20.2803 68.2267 20.2992 68.2267 20.3181H68.0563V20.375C68.0563 20.6023 67.971 20.7727 67.8006 20.8864H67.829C67.7343 20.9621 67.6112 21 67.4597 21H62.2037C62.0711 21 61.9575 20.9905 61.8628 20.9716C61.787 20.9337 61.7018 20.9053 61.6071 20.8864C61.4555 20.8106 61.3419 20.7254 61.2661 20.6307C61.1904 20.517 61.1336 20.4128 61.0957 20.3181H61.2377V20.2897L61.1809 20.1761L61.1241 20.034H61.6071L61.4082 19.4658H60.8684L60.7832 19.1817H61.948L61.7491 18.6135H61.4082L61.323 18.4146H55.2147L55.1579 18.6135H54.8169L54.6181 19.1817H54.3055L54.1919 19.4658H54.0214L53.8226 20.034H53.851L53.7942 20.1761L53.7657 20.2897L53.7373 20.3181H53.5953C53.5574 20.4128 53.5006 20.517 53.4248 20.6307C53.3491 20.7254 53.2354 20.8106 53.0839 20.8864H53.9362C53.8604 20.9053 53.7752 20.9337 53.6805 20.9716C53.5858 20.9905 53.4722 21 53.3396 21H48.0836C47.9321 21 47.8185 20.9621 47.7427 20.8864H46.8904C46.701 20.7538 46.6063 20.5833 46.6063 20.375V20.3181H46.7767C46.7767 20.2613 46.7862 20.214 46.8051 20.1761L46.8336 20.034H46.8051L47.004 19.4658H47.1745L47.2881 19.1817H47.6006L47.7995 18.6135H48.112L48.3109 18.0453H47.2029L47.3165 17.7612H47.2313L47.3734 17.335H47.6575L47.7143 17.193H47.0893L47.2881 16.6248H48.2541L48.3393 16.3407H47.4586L47.5154 16.1986H47.6575L47.8563 15.6304H47.7711L47.9132 15.2042H48.0268L48.2257 14.636H48.595L48.7371 14.2099L48.7939 14.0678H50.2144L50.2712 13.9258H50.186L50.3281 13.4996H48.7371L48.9359 12.9314H49.4473L49.5042 12.7893H49.1916L49.2485 12.6473H50.1576L50.3565 12.0791H49.2485L49.3621 11.795H49.7883L49.9871 11.2268H49.7314L49.8735 10.8006H50.186L50.3849 10.2324H50.2996L50.3565 10.0903H49.703L49.8167 9.80622H50.4417L50.5838 9.38007H50.2996L50.3281 9.23801H50.8395L51.0383 8.6698H50.4133L50.5553 8.24364H50.2428L50.3281 7.95954H48.3677L48.453 7.67543H48.0836L48.2825 7.10722H47.9132L48.0836 6.68106H49.1916L49.3905 6.11285H52.2316L52.3736 5.68669H51.0099L51.1236 5.40258H52.1747L52.3736 4.83437H51.4361L51.5781 4.40821H52.1747L52.3736 3.84H52.2884L52.4873 3.27179H51.6918L51.7202 3.12973H54.4476L54.6465 2.56152H54.5612L54.6181 2.41947H53.6237L53.7373 2.05013L53.8226 1.85126H54.1067L54.2771 1.56715H54.1919C54.2866 1.43457 54.4192 1.3304 54.5896 1.25463C54.7601 1.15993 54.9685 1.11258 55.2147 1.11258H61.3798C61.626 1.11258 61.8344 1.15993 62.0048 1.25463C62.1753 1.3304 62.3079 1.43457 62.4026 1.56715H62.5162L62.6867 1.85126H62.4026C62.4404 1.92702 62.4594 1.99331 62.4594 2.05013L62.6014 2.41947H63.5958L63.6242 2.56152H63.7095L63.9083 3.12973H61.2093L61.2661 3.27179H62.0616L62.2605 3.84H62.3457L62.5446 4.40821H61.948L62.09 4.83437H63.0276L63.2265 5.40258H62.1753L62.2889 5.68669H63.6526L63.7947 6.11285H60.9536L61.1525 6.68106H60.0445L60.1865 7.10722H60.5275L60.7263 7.67543H59.6183L59.732 7.95954H64.2493L64.3345 8.24364H64.1072L64.2493 8.6698H63.681L63.8799 9.23801H63.1981L63.2265 9.38007H64.2493L64.3913 9.80622H64.4197L64.5334 10.0903H63.5958L63.6526 10.2324H64.5618L64.7606 10.8006H65.0732L65.2152 11.2268H65.13L65.3289 11.795H65.7834L65.8971 12.0791H65.0732L65.272 12.6473H65.8402L65.8687 12.7893H65.7266L65.7834 12.9314H65.272L65.4425 13.4996H67.0619L67.204 13.9258H67.2892L67.346 14.0678H65.8971L65.9539 14.2099H65.9823L66.1244 14.636H65.755L65.9539 15.2042H65.8118L65.9823 15.6304H66.0675L66.2664 16.1986H66.1244L66.1812 16.3407H67.0619L67.1755 16.6248H66.1812L66.38 17.193H67.0051L67.0619 17.335H66.7778L66.9483 17.7612H67.0051L67.1187 18.0453H68.2267L68.4256 18.6135H68.7665L68.9654 19.1817H67.8006L67.8858 19.4658H68.4256ZM56.55 8.24364H56.8909L56.7489 8.6698H57.9137L57.7716 8.24364H57.9989L57.9137 7.95954H56.6352L56.55 8.24364ZM57.4875 9.23801L57.3455 8.75503L57.2034 9.23801H57.4875ZM55.7829 12.6473L55.7261 12.7893H56.0386L56.0102 12.8746H59.2206L59.1922 12.7893H59.3342L59.3058 12.6473H58.7376L58.5671 12.0791H59.391L59.3058 11.795H58.8228L58.6524 11.2268H58.7376L58.624 10.8006H58.3114L58.141 10.2324H57.2318L57.175 10.0903H58.1126L58.0273 9.80622H57.9989L57.8569 9.38007H56.9477L56.8341 9.80622H56.2091L56.1238 10.0903H56.7489L56.7204 10.2324H56.8057L56.6352 10.8006H56.3227L56.1806 11.2268H56.4363L56.2659 11.795H55.8397L55.7545 12.0791H56.8625L56.692 12.6473H55.7829ZM86.8512 3.69795H81.5668V4.26616H83.584V4.69232H85.7716V5.11848H85.7148V5.54463H86.5387V6.11285H83.4419V6.2549H82.8453V6.45377C82.8453 6.58636 82.8169 6.70947 82.7601 6.82311H84.7772C84.6447 7.08828 84.4268 7.22086 84.1238 7.22086H79.4076V7.24927H79.6917V7.81748H79.7486V8.38569H79.6065V8.95391H79.2372V9.38007H80.6577V9.66417H79.4645V10.0903H78.8394V10.6585H79.919V10.9426H79.7202V11.5109H79.5213V12.0791H79.1804V12.6473H78.8678V13.0734H79.919V13.4996H79.4929V14.0678H79.6633V14.2099H79.8622V14.494H81.2827V14.9201H80.3168V15.4883H80.7429V16.0566H79.5497V16.6248H80.0327V16.9089H80.2315V17.335H80.6861V17.9032H80.5156V18.3294H79.777V18.7556H79.6917V19.0397H79.6633V19.4658H79.9758V19.892H79.7202V20.2329C79.7202 20.3276 79.7107 20.4034 79.6917 20.4602H79.4076C79.3508 20.6496 79.2466 20.7917 79.0951 20.8864H79.1519C79.0572 20.9621 78.9247 21 78.7542 21H73.0721C72.9206 21 72.7785 20.9621 72.6459 20.8864H72.5891C72.4565 20.7917 72.3523 20.6496 72.2766 20.4602H72.5323C72.5133 20.4034 72.5039 20.3276 72.5039 20.2329V19.892H72.7596V19.4658H72.447V19.0397H72.4755V18.7556H72.5607V18.3294H73.2994V17.9032H73.4698V17.335H73.0153V16.9089H72.8164V16.6248H72.3334V16.0566H73.5266V15.4883H73.1005V14.9201H74.0664V14.494H72.6459V14.2099H72.447V14.0678H72.2766V13.4996H72.7027V13.0734H71.6515V12.6473H71.9641V12.0791H72.305V11.5109H72.5039V10.9426H72.7027V10.6585H71.6231V10.0903H72.2482V9.66417H73.4414V9.38007H72.0209V8.95391H72.3902V8.38569H72.5323V7.81748H72.4755V7.24927H72.1913V7.22086H67.4752C67.1911 7.22086 66.9638 7.08828 66.7933 6.82311H64.7762C64.7572 6.76629 64.7383 6.70947 64.7194 6.65265C64.6815 6.59583 64.6625 6.52954 64.6625 6.45377V6.2549H65.2592V6.11285H68.3559V5.54463H67.532V5.11848H67.5888V4.69232H65.4012V4.26616H63.3841V3.69795H68.6684V3.27179H65.7137V2.70357H66.2819V2.13536H67.0206V1.99331H67.4468V1.87967C67.4468 1.69026 67.5036 1.53874 67.6172 1.4251H66.9922C67.1437 1.21675 67.3521 1.11258 67.6172 1.11258H84.2658C84.531 1.11258 84.7394 1.21675 84.8909 1.4251H85.4875C85.5822 1.55768 85.6296 1.7092 85.6296 1.87967V1.99331H85.2034V2.13536H84.4647V2.70357H83.8965V3.27179H86.8512V3.69795Z" fill="black"/>
<path d="M110.115 7.39132V7.53338H109.433C109.452 7.62808 109.461 7.72278 109.461 7.81748C109.461 7.91218 109.461 8.00689 109.461 8.10159H104.489C104.489 8.34781 104.366 8.53722 104.12 8.6698C104.006 8.70768 103.921 8.72662 103.864 8.72662H98.0685C97.9928 8.72662 97.917 8.72662 97.8412 8.72662C97.7655 8.70768 97.6897 8.68874 97.6139 8.6698H92.983V8.81185H95.4831C95.4642 8.90656 95.4547 9.00126 95.4547 9.09596C95.4547 9.19066 95.4547 9.28536 95.4547 9.38007H94.4604C94.4414 9.41795 94.432 9.4653 94.432 9.52212C94.432 9.57894 94.432 9.62629 94.432 9.66417H94.5172V9.94828H94.091V10.5165H95.4547V10.6585H90.8522V10.9426H92.3012V11.5109H95.2275V11.6529H94.0342V11.795H93.2671V12.3632H95.4547C95.4737 12.4389 95.4831 12.5147 95.4831 12.5905C95.4831 12.6473 95.4831 12.7136 95.4831 12.7893H96.2786V12.9314H92.6137V13.2155H91.7898V13.3575H95.4831V13.386H101.165C101.525 13.386 101.733 13.5659 101.79 13.9258H105.995V14.3519H105.796L105.739 14.9201H105.427L105.398 15.2042H106.137C106.137 15.2611 106.128 15.3084 106.109 15.3463H105.938C105.919 15.3842 105.91 15.4315 105.91 15.4883H106.847L106.762 15.9145H105.881C105.881 15.9334 105.872 15.9524 105.853 15.9713C105.853 15.9903 105.853 16.0187 105.853 16.0566H105.626C105.607 16.1323 105.578 16.2081 105.54 16.2838C105.522 16.3407 105.503 16.407 105.484 16.4827H105.825C105.825 16.5017 105.806 16.549 105.768 16.6248H105.2C105.162 16.7195 105.114 16.8142 105.058 16.9089C105.02 17.0036 104.972 17.0983 104.915 17.193H105.484L105.228 17.6191H105.484L105.2 18.0453H105.029C104.953 18.14 104.868 18.2347 104.773 18.3294C104.698 18.4241 104.612 18.5188 104.518 18.6135H104.29C104.271 18.6325 104.253 18.6514 104.234 18.6703C104.215 18.6893 104.186 18.7177 104.148 18.7556H102.927L102.785 18.8976H108.495C108.382 18.9923 108.268 19.087 108.154 19.1817C108.041 19.2764 107.918 19.3711 107.785 19.4658H107.472C107.283 19.5984 107.056 19.7405 106.791 19.892H100.796C100.607 20.0056 100.408 20.1098 100.199 20.2045C99.991 20.2803 99.7826 20.3655 99.5743 20.4602H104.262C104.205 20.4791 104.139 20.4981 104.063 20.517C104.006 20.536 103.94 20.5644 103.864 20.6023H102.728C102.652 20.6212 102.576 20.6401 102.501 20.6591C102.425 20.678 102.349 20.7064 102.273 20.7443H100.228C99.5459 20.9337 98.8451 21.0758 98.1253 21.1705H98.5799C98.2769 21.2083 97.9643 21.2368 97.6424 21.2557C97.3204 21.2746 96.9984 21.2841 96.6764 21.2841C96.3165 21.2841 95.9661 21.2746 95.6252 21.2557C95.3032 21.2368 94.9812 21.2083 94.6592 21.1705H94.2047C93.4471 21.0758 92.7463 20.9337 92.1023 20.7443H94.1479C94.0721 20.7064 93.9963 20.678 93.9206 20.6591C93.8637 20.6401 93.7975 20.6212 93.7217 20.6023H94.8865L94.4888 20.4602H89.801C89.6116 20.3655 89.4128 20.2803 89.2044 20.2045C89.015 20.1098 88.8256 20.0056 88.6362 19.892H94.6592C94.5456 19.8162 94.432 19.7499 94.3183 19.6931C94.2047 19.6174 94.1005 19.5416 94.0058 19.4658H94.3183C94.091 19.2954 93.8732 19.106 93.6649 18.8976H87.9259C87.907 18.8597 87.888 18.8313 87.8691 18.8124C87.8502 18.7934 87.8218 18.7745 87.7839 18.7556H89.0339C89.015 18.7177 88.9866 18.6893 88.9487 18.6703C88.9298 18.6514 88.9108 18.6325 88.8919 18.6135H89.1192C88.9487 18.4241 88.7877 18.2347 88.6362 18.0453H88.8067L88.551 17.6191H88.2953L88.0396 17.193H87.4714L87.2157 16.6248H87.8123L87.7555 16.4827H87.3861C87.3672 16.407 87.3482 16.3407 87.3293 16.2838C87.3104 16.2081 87.282 16.1323 87.2441 16.0566H87.4714L87.4145 15.9145H88.2953C88.2763 15.8387 88.2574 15.7724 88.2384 15.7156C88.2195 15.6399 88.2006 15.5641 88.1816 15.4883H87.7271C87.7081 15.4505 87.6986 15.4031 87.6986 15.3463H87.2157C87.1967 15.3084 87.1873 15.2611 87.1873 15.2042H87.2157C87.2157 15.1285 87.1967 15.0338 87.1588 14.9201H85.5394L85.4542 14.3519H87.6418C87.6229 14.2762 87.6134 14.2099 87.6134 14.153C87.6134 14.0773 87.6039 14.0015 87.585 13.9258H88.1248C88.1248 13.8689 88.1248 13.8121 88.1248 13.7553C88.1248 13.6985 88.1153 13.6417 88.0964 13.5848V13.3575H84.403V13.2155H85.2269V12.9314H88.8919V12.7893H88.0964C88.0964 12.7136 88.0869 12.6473 88.068 12.5905C88.068 12.5147 88.068 12.4389 88.068 12.3632H85.8804V11.795H86.6475V11.6529H87.8407V11.5109H84.9144V10.9426H83.4655V10.6585H88.068V10.5165H86.7043V9.94828H87.1304V9.66417H87.0452V9.38007H88.068V8.81185H85.5963V8.6698H91.0511V8.52775C91.07 8.45199 91.0795 8.38569 91.0795 8.32887C91.0795 8.25311 91.0795 8.17735 91.0795 8.10159H89.5737C89.5737 8.00689 89.5737 7.91218 89.5737 7.81748C89.5927 7.72278 89.6116 7.62808 89.6306 7.53338H90.5397C90.5586 7.4955 90.5681 7.44814 90.5681 7.39132H84.6871C84.7061 7.35344 84.7155 7.30609 84.7155 7.24927C84.7155 7.19245 84.725 7.1451 84.7439 7.10722H89.9147L90.0567 6.53901H88.8919L88.9771 6.2549H87.0736L87.1304 6.11285H87.7555C87.7744 6.07497 87.7933 6.02761 87.8123 5.97079C87.8312 5.91397 87.8502 5.86662 87.8691 5.82874H87.5566L87.6702 5.54463H87.8123C87.8502 5.46887 87.888 5.40258 87.9259 5.34576C87.9638 5.27 87.9922 5.19424 88.0112 5.11848H88.0396L88.2953 4.69232H88.21C88.2479 4.61656 88.2858 4.55026 88.3237 4.49344C88.3805 4.41768 88.4373 4.34192 88.4941 4.26616H88.2669C88.3426 4.17146 88.4184 4.07675 88.4941 3.98205C88.5699 3.86841 88.6457 3.77371 88.7214 3.69795H88.4657C88.4847 3.66007 88.5036 3.63165 88.5226 3.61271C88.5415 3.59377 88.5604 3.57483 88.5794 3.55589H88.2953L88.4373 3.41384H88.3805C88.4184 3.37596 88.4468 3.34755 88.4657 3.32861C88.4847 3.30967 88.5036 3.29073 88.5226 3.27179H88.0112C88.049 3.23391 88.0964 3.18655 88.1532 3.12973C88.21 3.07291 88.2669 3.02556 88.3237 2.98768H89.0055C89.1002 2.91192 89.1949 2.84563 89.2896 2.78881C89.3843 2.71304 89.479 2.63728 89.5737 2.56152H89.2612L89.4885 2.41947H89.0055C89.0434 2.38159 89.0813 2.35318 89.1192 2.33424C89.1571 2.3153 89.1949 2.29636 89.2328 2.27742H90.7102C90.8428 2.20165 90.9753 2.13536 91.1079 2.07854C91.2405 2.00278 91.3731 1.92702 91.5057 1.85126H91.4204C91.5341 1.79444 91.6477 1.74708 91.7614 1.7092C91.875 1.65238 91.9886 1.60503 92.1023 1.56715H92.6421C92.6989 1.52927 92.7557 1.50086 92.8126 1.48192C92.8883 1.46298 92.9641 1.44404 93.0398 1.4251H92.1875C92.7557 1.21675 93.3618 1.0747 94.0058 0.998938H94.7729C95.5116 0.885296 96.2881 0.828475 97.1026 0.828475C97.898 0.828475 98.6651 0.885296 99.4038 0.998938H98.6651C99.2902 1.0747 99.9152 1.21675 100.54 1.4251H101.393C101.468 1.44404 101.535 1.46298 101.591 1.48192C101.667 1.50086 101.743 1.52927 101.819 1.56715H101.279C101.563 1.66185 101.8 1.75656 101.989 1.85126H102.074C102.226 1.92702 102.368 2.00278 102.501 2.07854C102.633 2.13536 102.766 2.20165 102.898 2.27742H101.449C101.487 2.29636 101.525 2.3153 101.563 2.33424C101.601 2.35318 101.639 2.38159 101.677 2.41947H102.16C102.198 2.43841 102.235 2.45735 102.273 2.47629C102.311 2.49523 102.34 2.52364 102.359 2.56152H102.671L103.239 2.98768H102.529L102.87 3.27179H103.381L103.552 3.41384H103.58L103.722 3.55589H104.006L104.148 3.69795H104.404C104.48 3.77371 104.556 3.86841 104.631 3.98205C104.707 4.07675 104.783 4.17146 104.859 4.26616H105.058C105.114 4.34192 105.162 4.41768 105.2 4.49344C105.256 4.55026 105.304 4.61656 105.342 4.69232H105.427C105.465 4.76808 105.503 4.84384 105.54 4.9196C105.578 4.97642 105.616 5.04271 105.654 5.11848H105.597C105.635 5.19424 105.673 5.27 105.711 5.34576C105.749 5.40258 105.777 5.46887 105.796 5.54463H105.654L105.739 5.82874H106.052L106.137 6.11285H105.512C105.512 6.13179 105.512 6.15073 105.512 6.16967C105.531 6.18861 105.54 6.21702 105.54 6.2549H107.444C107.444 6.33066 107.463 6.42536 107.501 6.53901H104.915L105.001 7.10722H106.649L106.677 7.39132H110.115ZM97.0741 6.53901H99.0913C98.7882 6.42536 98.4473 6.36854 98.0685 6.36854C97.6897 6.36854 97.3582 6.42536 97.0741 6.53901ZM101.989 7.90271C101.97 7.82695 101.951 7.76066 101.932 7.70384C101.913 7.64702 101.885 7.5902 101.847 7.53338H102.529L102.444 7.39132H99.0345C99.0155 7.3345 98.9871 7.28715 98.9492 7.24927C98.9114 7.19245 98.8735 7.1451 98.8356 7.10722H92.3864C92.3675 7.1451 92.339 7.19245 92.3012 7.24927C92.2822 7.28715 92.2538 7.3345 92.2159 7.39132H98.0969L98.0401 7.53338H97.131C97.0931 7.60914 97.0647 7.70384 97.0457 7.81748C97.0268 7.91218 97.0078 8.00689 96.9889 8.10159H102.074L101.989 7.90271ZM98.6367 13.9258H95.0002L95.0854 14.3519H92.8978C92.9357 14.4656 92.9735 14.5697 93.0114 14.6644C93.0493 14.7402 93.0967 14.8254 93.1535 14.9201H94.7729C94.8108 14.977 94.8486 15.0338 94.8865 15.0906C94.9244 15.1285 94.9623 15.1664 95.0002 15.2042H94.9433L95.0854 15.3463H95.5684C95.6063 15.3652 95.6441 15.3936 95.682 15.4315C95.7199 15.4505 95.7578 15.4694 95.7957 15.4883H96.2502C96.5722 15.6588 96.9605 15.744 97.4151 15.744C97.8696 15.744 98.2484 15.6588 98.5515 15.4883H97.6139L97.8412 15.3463H98.0117L98.1822 15.2042H97.4435C97.4814 15.1664 97.5192 15.1285 97.5571 15.0906C97.6139 15.0338 97.6518 14.977 97.6708 14.9201H97.9833C98.0969 14.7497 98.1916 14.5603 98.2674 14.3519H98.4663L98.5231 14.2099C98.561 14.0962 98.5988 14.0015 98.6367 13.9258ZM119.786 5.97079H115.155V6.53901H117.001V7.10722H119.445V7.53338H116.689V7.67543H117.03V8.24364H116.319V8.38569H116.263V8.52775H115.552V9.09596H116.888V9.23801H116.944V9.38007H116.632V9.80622H116.433V9.94828H117.371V10.5165H115.098V11.0847H115.922V11.5109H116.376V12.0791H116.433V12.6473H116.206V13.3575H116.461V13.6417H116.291V14.0678H116.263V14.2099H116.035V14.7781H116.291V15.0622H116.263V16.7668H116.291V17.335H116.774V17.9032H116.376V18.1874H116.263V18.4715H116.604V19.0397H116.121V19.1817H116.831V19.4658H117.087V19.6079H116.859V20.034H116.746V20.2329C116.746 20.2708 116.736 20.3087 116.717 20.3466C116.717 20.3844 116.708 20.4223 116.689 20.4602H115.979C115.96 20.5549 115.903 20.6496 115.808 20.7443H116.604C116.528 20.8201 116.471 20.8674 116.433 20.8864H114.814C114.719 20.9621 114.586 21 114.416 21H108.62C108.45 21 108.317 20.9621 108.222 20.8864H109.842C109.766 20.8674 109.709 20.8201 109.671 20.7443H108.876C108.781 20.6496 108.724 20.5549 108.705 20.4602H109.444C109.425 20.4034 109.416 20.3276 109.416 20.2329V20.034H109.529V19.6079H109.757V19.4658H109.501V19.1817H108.791V19.0397H109.274V18.4715H108.933V18.1874H109.046V17.9032H109.444V17.335H108.961V16.7668H108.933V15.0622H108.961V14.7781H108.705V14.2099H108.933V14.0678H108.961V13.6417H109.132V13.3575H108.876V12.6473H109.103V12.0791H109.046V11.5109H108.592V11.0847H107.768V10.5165H110.041V9.94828H109.103V9.80622H109.302V9.38007H109.615V9.23801H109.558V9.09596H108.222V8.52775H108.933V8.38569H108.99V8.24364H109.7V7.67543H109.359V7.53338H112.115V7.10722H109.671V6.53901H107.825V5.97079H112.456V5.82874H109.558V5.40258H109.529V4.97642H109.018V4.83437H110.751V4.55026H109.444V3.98205H109.558V3.55589H108.762V2.98768H108.904V2.70357H108.819V2.41947H109.046V2.27742H108.791V1.87967C108.791 1.78497 108.81 1.68079 108.847 1.56715H108.99C109.122 1.2641 109.359 1.11258 109.7 1.11258H115.496C115.836 1.11258 116.073 1.2641 116.206 1.56715H116.064C116.102 1.68079 116.121 1.78497 116.121 1.87967V2.27742H116.376V2.41947H116.149V2.70357H116.234V2.98768H116.092V3.55589H116.888V3.98205H116.774V4.55026H118.081V4.83437H116.348V4.97642H116.859V5.40258H116.888V5.82874H119.786V5.97079ZM137.916 9.66417H136.524C136.505 9.73993 136.486 9.81569 136.467 9.89146C136.448 9.94828 136.42 10.0146 136.382 10.0903H137.177L137.092 10.3744H136.41C136.354 10.5449 136.278 10.7343 136.183 10.9426H135.757C135.681 11.1321 135.577 11.3215 135.444 11.5109H135.501C135.425 11.6056 135.359 11.7003 135.302 11.795C135.246 11.8897 135.179 11.9844 135.104 12.0791H138.172L137.803 12.5052H135.274C135.198 12.5999 135.104 12.6946 134.99 12.7893C134.876 12.884 134.772 12.9787 134.677 13.0734H135.047C134.971 13.1492 134.876 13.225 134.763 13.3007C134.668 13.3575 134.573 13.4238 134.478 13.4996H135.416L135.302 13.5848L135.558 14.0678H134.876L135.189 14.636H135.274L135.359 14.7781H135.331L135.615 15.3463H135.899L136.069 15.6304H133.882L134.109 16.0566H136.098L136.268 16.3407H135.643L135.871 16.7668H138.683L138.996 17.335H137.121L137.348 17.7612H136.467L136.922 18.6135H137.121L137.291 18.8976H137.206L137.291 19.0397H135.956L136.268 19.6079L136.325 19.7499H135.444L135.586 20.0625C135.643 20.1382 135.672 20.2234 135.672 20.3181H136.268V20.375C136.268 20.5833 136.183 20.7538 136.013 20.8864H136.78C136.685 20.9621 136.562 21 136.41 21H130.586C130.473 21 130.368 20.9905 130.274 20.9716C130.198 20.9337 130.113 20.9053 130.018 20.8864H129.251C129.099 20.8106 128.967 20.7159 128.853 20.6023C128.758 20.4886 128.683 20.3939 128.626 20.3181H128.058L128.001 20.2329L127.802 19.7499H128.711L128.626 19.6079H125.927V19.7499H124.478V20.3181H126.779C126.741 20.5833 126.618 20.7727 126.41 20.8864H126.211C126.078 20.9621 125.936 21 125.785 21H120.216C120.046 21 119.913 20.9621 119.819 20.8864H120.046C119.838 20.7727 119.714 20.5833 119.677 20.3181H117.404C117.404 20.2992 117.404 20.2897 117.404 20.2897C117.385 20.2708 117.375 20.2519 117.375 20.2329V19.7499H118.824V19.6079H121.665V19.0397H118.625V18.8976H120.415V18.6135H119.819V18.1874H120.813V17.7612H119.194V17.335H121.381V16.7668H120.131V16.3407H120.103V16.1986H119.932V16.0566H119.165V15.6304H120.131V15.3463H119.875V14.7781H119.904V14.636H119.819V14.0678H120.5V13.4996H119.534V13.0734H119.165V12.5052H121.665V12.0791H118.597V11.5109H118.54V10.9426H118.966V10.3744H119.62V10.0903H118.824V9.66417H120.216V9.38007H122.262V9.09596H119.449V8.95391H119.591V8.81185H119.847V8.6698H119.875V8.38569H119.819V7.95954H119.932V7.39132H119.79V7.10722H119.932V6.68106H119.819V6.53901H119.904V6.2549H119.875V6.11285H119.762V5.97079H120.017V5.54463H120.245V5.11848H118.909V4.55026H119.222V3.98205H119.052V3.55589H119.819V3.12973H120.103V2.70357H119.591V2.41947H119.79V2.27742H119.847V1.85126H119.904C119.904 1.64291 119.989 1.45351 120.16 1.28305H121.694C121.807 1.1694 121.968 1.11258 122.177 1.11258H130.586C131.401 1.11258 132.158 1.1694 132.859 1.28305H131.353C132.111 1.39669 132.831 1.58609 133.513 1.85126H133.456C133.778 1.9649 134.09 2.10695 134.393 2.27742H134.336L134.592 2.41947H134.365C134.46 2.45735 134.535 2.5047 134.592 2.56152C134.668 2.61834 134.744 2.66569 134.819 2.70357H135.331C135.425 2.77934 135.52 2.8551 135.615 2.93086C135.71 2.98768 135.795 3.05397 135.871 3.12973H135.586C135.681 3.2055 135.757 3.28126 135.814 3.35702C135.89 3.41384 135.965 3.48013 136.041 3.55589H135.274C135.35 3.63165 135.416 3.70742 135.473 3.78318C135.53 3.84 135.586 3.90629 135.643 3.98205H135.785C135.937 4.17146 136.069 4.36086 136.183 4.55026H135.899C135.956 4.62602 136.003 4.72073 136.041 4.83437C136.098 4.92907 136.155 5.02377 136.212 5.11848H137.547L137.717 5.54463H137.49C137.509 5.6204 137.528 5.69616 137.547 5.77192C137.585 5.82874 137.613 5.89503 137.632 5.97079H137.348L137.405 6.11285H137.518C137.537 6.15073 137.547 6.19808 137.547 6.2549L137.632 6.53901H137.717C137.717 6.59583 137.727 6.64318 137.746 6.68106H137.774C137.793 6.75682 137.803 6.83258 137.803 6.90834C137.821 6.96516 137.831 7.03146 137.831 7.10722H137.462C137.462 7.1451 137.462 7.19245 137.462 7.24927C137.462 7.30609 137.471 7.35344 137.49 7.39132H137.66C137.66 7.48603 137.66 7.58073 137.66 7.67543C137.679 7.77013 137.689 7.86483 137.689 7.95954V8.24364H137.859V8.38569H137.689V8.6698H137.405C137.405 8.68874 137.395 8.70768 137.376 8.72662C137.376 8.74556 137.376 8.77397 137.376 8.81185H137.66C137.66 8.83079 137.651 8.84973 137.632 8.86867C137.632 8.88761 137.632 8.91603 137.632 8.95391H138.967C138.948 8.99179 138.939 9.03914 138.939 9.09596H139.308L139.28 9.38007H137.973C137.935 9.49371 137.916 9.58841 137.916 9.66417ZM126.552 9.09596H129.365V9.38007H127.319V9.40848H129.393C129.526 9.40848 129.63 9.39901 129.705 9.38007H131.012C131.221 9.32324 131.41 9.22854 131.581 9.09596H131.183L131.325 8.95391H129.99C130.046 8.89709 130.084 8.84973 130.103 8.81185H129.819L129.904 8.6698H130.188L130.274 8.38569H130.416C130.435 8.34781 130.444 8.30046 130.444 8.24364H130.274L130.302 7.95954C130.302 7.77013 130.274 7.58073 130.217 7.39132H130.046C130.027 7.35344 130.009 7.30609 129.99 7.24927C129.99 7.19245 129.971 7.1451 129.933 7.10722H130.331C130.255 6.95569 130.151 6.81364 130.018 6.68106H129.961C129.904 6.62424 129.838 6.57689 129.762 6.53901H129.677C129.488 6.4443 129.289 6.39695 129.08 6.39695H127.006V6.53901H126.921V6.68106H127.035V7.10722H126.893V7.39132H127.035V7.95954H126.921V8.38569H126.978V8.6698H126.95V8.81185H126.694V8.95391H126.552V9.09596ZM128.796 15.6304L128.683 15.3463H128.37L128.143 14.8065H126.978V15.3463H127.234V15.6304H128.796ZM126.268 15.6304V16.0566H126.808L126.637 15.6304H126.268ZM128.853 16.1986L128.796 16.0566H127.035V16.1986H127.205V16.3407H127.234V16.7668H128.484V17.335H126.296V17.7612H127.916V18.1874H126.921V18.6135H127.518V18.8976H125.728V19.0397H129.734L129.649 18.8976H129.734L129.592 18.6135H129.365L129.194 18.1874L128.995 17.7612H129.904L129.705 17.335H131.552L131.296 16.7668H128.484L128.313 16.3407H128.938L128.853 16.1986ZM163.054 7.39132V7.53338H162.372C162.391 7.62808 162.4 7.72278 162.4 7.81748C162.4 7.91218 162.4 8.00689 162.4 8.10159H157.428C157.428 8.34781 157.305 8.53722 157.059 8.6698C156.945 8.70768 156.86 8.72662 156.803 8.72662H151.008C150.932 8.72662 150.856 8.72662 150.78 8.72662C150.705 8.70768 150.629 8.68874 150.553 8.6698H145.922V8.81185H148.422C148.403 8.90656 148.394 9.00126 148.394 9.09596C148.394 9.19066 148.394 9.28536 148.394 9.38007H147.4C147.381 9.41795 147.371 9.4653 147.371 9.52212C147.371 9.57894 147.371 9.62629 147.371 9.66417H147.456V9.94828H147.03V10.5165H148.394V10.6585H143.791V10.9426H145.24V11.5109H148.167V11.6529H146.973V11.795H146.206V12.3632H148.394C148.413 12.4389 148.422 12.5147 148.422 12.5905C148.422 12.6473 148.422 12.7136 148.422 12.7893H149.218V12.9314H145.553V13.2155H144.729V13.3575H148.422V13.386H154.104C154.464 13.386 154.673 13.5659 154.729 13.9258H158.934V14.3519H158.735L158.679 14.9201H158.366L158.338 15.2042H159.076C159.076 15.2611 159.067 15.3084 159.048 15.3463H158.877C158.858 15.3842 158.849 15.4315 158.849 15.4883H159.787L159.701 15.9145H158.821C158.821 15.9334 158.811 15.9524 158.792 15.9713C158.792 15.9903 158.792 16.0187 158.792 16.0566H158.565C158.546 16.1323 158.518 16.2081 158.48 16.2838C158.461 16.3407 158.442 16.407 158.423 16.4827H158.764C158.764 16.5017 158.745 16.549 158.707 16.6248H158.139C158.101 16.7195 158.053 16.8142 157.997 16.9089C157.959 17.0036 157.911 17.0983 157.855 17.193H158.423L158.167 17.6191H158.423L158.139 18.0453H157.968C157.892 18.14 157.807 18.2347 157.713 18.3294C157.637 18.4241 157.552 18.5188 157.457 18.6135H157.23C157.211 18.6325 157.192 18.6514 157.173 18.6703C157.154 18.6893 157.125 18.7177 157.088 18.7556H155.866L155.724 18.8976H161.434C161.321 18.9923 161.207 19.087 161.093 19.1817C160.98 19.2764 160.857 19.3711 160.724 19.4658H160.412C160.222 19.5984 159.995 19.7405 159.73 19.892H153.735C153.546 20.0056 153.347 20.1098 153.138 20.2045C152.93 20.2803 152.722 20.3655 152.513 20.4602H157.201C157.144 20.4791 157.078 20.4981 157.002 20.517C156.945 20.536 156.879 20.5644 156.803 20.6023H155.667C155.591 20.6212 155.515 20.6401 155.44 20.6591C155.364 20.678 155.288 20.7064 155.212 20.7443H153.167C152.485 20.9337 151.784 21.0758 151.064 21.1705H151.519C151.216 21.2083 150.903 21.2368 150.582 21.2557C150.26 21.2746 149.938 21.2841 149.616 21.2841C149.256 21.2841 148.905 21.2746 148.564 21.2557C148.242 21.2368 147.92 21.2083 147.598 21.1705H147.144C146.386 21.0758 145.685 20.9337 145.041 20.7443H147.087C147.011 20.7064 146.935 20.678 146.86 20.6591C146.803 20.6401 146.737 20.6212 146.661 20.6023H147.826L147.428 20.4602H142.74C142.551 20.3655 142.352 20.2803 142.144 20.2045C141.954 20.1098 141.765 20.0056 141.575 19.892H147.598C147.485 19.8162 147.371 19.7499 147.257 19.6931C147.144 19.6174 147.04 19.5416 146.945 19.4658H147.257C147.03 19.2954 146.812 19.106 146.604 18.8976H140.865C140.846 18.8597 140.827 18.8313 140.808 18.8124C140.789 18.7934 140.761 18.7745 140.723 18.7556H141.973C141.954 18.7177 141.926 18.6893 141.888 18.6703C141.869 18.6514 141.85 18.6325 141.831 18.6135H142.058C141.888 18.4241 141.727 18.2347 141.575 18.0453H141.746L141.49 17.6191H141.234L140.979 17.193H140.411L140.155 16.6248H140.751L140.695 16.4827H140.325C140.306 16.407 140.287 16.3407 140.268 16.2838C140.25 16.2081 140.221 16.1323 140.183 16.0566H140.411L140.354 15.9145H141.234C141.215 15.8387 141.197 15.7724 141.178 15.7156C141.159 15.6399 141.14 15.5641 141.121 15.4883H140.666C140.647 15.4505 140.638 15.4031 140.638 15.3463H140.155C140.136 15.3084 140.126 15.2611 140.126 15.2042H140.155C140.155 15.1285 140.136 15.0338 140.098 14.9201H138.479L138.393 14.3519H140.581C140.562 14.2762 140.553 14.2099 140.553 14.153C140.553 14.0773 140.543 14.0015 140.524 13.9258H141.064C141.064 13.8689 141.064 13.8121 141.064 13.7553C141.064 13.6985 141.054 13.6417 141.036 13.5848V13.3575H137.342V13.2155H138.166V12.9314H141.831V12.7893H141.036C141.036 12.7136 141.026 12.6473 141.007 12.5905C141.007 12.5147 141.007 12.4389 141.007 12.3632H138.82V11.795H139.587V11.6529H140.78V11.5109H137.854V10.9426H136.405V10.6585H141.007V10.5165H139.643V9.94828H140.07V9.66417H139.984V9.38007H141.007V8.81185H138.535V8.6698H143.99V8.52775C144.009 8.45199 144.019 8.38569 144.019 8.32887C144.019 8.25311 144.019 8.17735 144.019 8.10159H142.513C142.513 8.00689 142.513 7.91218 142.513 7.81748C142.532 7.72278 142.551 7.62808 142.57 7.53338H143.479C143.498 7.4955 143.507 7.44814 143.507 7.39132H137.626C137.645 7.35344 137.655 7.30609 137.655 7.24927C137.655 7.19245 137.664 7.1451 137.683 7.10722H142.854L142.996 6.53901H141.831L141.916 6.2549H140.013L140.07 6.11285H140.695C140.714 6.07497 140.732 6.02761 140.751 5.97079C140.77 5.91397 140.789 5.86662 140.808 5.82874H140.496L140.609 5.54463H140.751C140.789 5.46887 140.827 5.40258 140.865 5.34576C140.903 5.27 140.931 5.19424 140.95 5.11848H140.979L141.234 4.69232H141.149C141.187 4.61656 141.225 4.55026 141.263 4.49344C141.32 4.41768 141.376 4.34192 141.433 4.26616H141.206C141.282 4.17146 141.358 4.07675 141.433 3.98205C141.509 3.86841 141.585 3.77371 141.661 3.69795H141.405C141.424 3.66007 141.443 3.63165 141.462 3.61271C141.481 3.59377 141.5 3.57483 141.519 3.55589H141.234L141.376 3.41384H141.32C141.358 3.37596 141.386 3.34755 141.405 3.32861C141.424 3.30967 141.443 3.29073 141.462 3.27179H140.95C140.988 3.23391 141.036 3.18655 141.092 3.12973C141.149 3.07291 141.206 3.02556 141.263 2.98768H141.945C142.039 2.91192 142.134 2.84563 142.229 2.78881C142.323 2.71304 142.418 2.63728 142.513 2.56152H142.2L142.428 2.41947H141.945C141.983 2.38159 142.02 2.35318 142.058 2.33424C142.096 2.3153 142.134 2.29636 142.172 2.27742H143.649C143.782 2.20165 143.914 2.13536 144.047 2.07854C144.18 2.00278 144.312 1.92702 144.445 1.85126H144.36C144.473 1.79444 144.587 1.74708 144.701 1.7092C144.814 1.65238 144.928 1.60503 145.041 1.56715H145.581C145.638 1.52927 145.695 1.50086 145.752 1.48192C145.827 1.46298 145.903 1.44404 145.979 1.4251H145.127C145.695 1.21675 146.301 1.0747 146.945 0.998938H147.712C148.451 0.885296 149.227 0.828475 150.042 0.828475C150.837 0.828475 151.604 0.885296 152.343 0.998938H151.604C152.229 1.0747 152.854 1.21675 153.479 1.4251H154.332C154.407 1.44404 154.474 1.46298 154.531 1.48192C154.606 1.50086 154.682 1.52927 154.758 1.56715H154.218C154.502 1.66185 154.739 1.75656 154.928 1.85126H155.014C155.165 1.92702 155.307 2.00278 155.44 2.07854C155.572 2.13536 155.705 2.20165 155.837 2.27742H154.389C154.426 2.29636 154.464 2.3153 154.502 2.33424C154.54 2.35318 154.578 2.38159 154.616 2.41947H155.099C155.137 2.43841 155.175 2.45735 155.212 2.47629C155.25 2.49523 155.279 2.52364 155.298 2.56152H155.61L156.178 2.98768H155.468L155.809 3.27179H156.32L156.491 3.41384H156.519L156.661 3.55589H156.945L157.088 3.69795H157.343C157.419 3.77371 157.495 3.86841 157.571 3.98205C157.646 4.07675 157.722 4.17146 157.798 4.26616H157.997C158.053 4.34192 158.101 4.41768 158.139 4.49344C158.196 4.55026 158.243 4.61656 158.281 4.69232H158.366C158.404 4.76808 158.442 4.84384 158.48 4.9196C158.518 4.97642 158.555 5.04271 158.593 5.11848H158.536C158.574 5.19424 158.612 5.27 158.65 5.34576C158.688 5.40258 158.716 5.46887 158.735 5.54463H158.593L158.679 5.82874H158.991L159.076 6.11285H158.451C158.451 6.13179 158.451 6.15073 158.451 6.16967C158.47 6.18861 158.48 6.21702 158.48 6.2549H160.383C160.383 6.33066 160.402 6.42536 160.44 6.53901H157.855L157.94 7.10722H159.588L159.616 7.39132H163.054ZM150.013 6.53901H152.03C151.727 6.42536 151.386 6.36854 151.008 6.36854C150.629 6.36854 150.297 6.42536 150.013 6.53901ZM154.928 7.90271C154.909 7.82695 154.89 7.76066 154.872 7.70384C154.853 7.64702 154.824 7.5902 154.786 7.53338H155.468L155.383 7.39132H151.974C151.955 7.3345 151.926 7.28715 151.888 7.24927C151.851 7.19245 151.813 7.1451 151.775 7.10722H145.326C145.307 7.1451 145.278 7.19245 145.24 7.24927C145.221 7.28715 145.193 7.3345 145.155 7.39132H151.036L150.979 7.53338H150.07C150.032 7.60914 150.004 7.70384 149.985 7.81748C149.966 7.91218 149.947 8.00689 149.928 8.10159H155.014L154.928 7.90271ZM151.576 13.9258H147.939L148.025 14.3519H145.837C145.875 14.4656 145.913 14.5697 145.951 14.6644C145.988 14.7402 146.036 14.8254 146.093 14.9201H147.712C147.75 14.977 147.788 15.0338 147.826 15.0906C147.864 15.1285 147.901 15.1664 147.939 15.2042H147.882L148.025 15.3463H148.508C148.545 15.3652 148.583 15.3936 148.621 15.4315C148.659 15.4505 148.697 15.4694 148.735 15.4883H149.189C149.511 15.6588 149.9 15.744 150.354 15.744C150.809 15.744 151.188 15.6588 151.491 15.4883H150.553L150.78 15.3463H150.951L151.121 15.2042H150.383C150.421 15.1664 150.458 15.1285 150.496 15.0906C150.553 15.0338 150.591 14.977 150.61 14.9201H150.922C151.036 14.7497 151.131 14.5603 151.207 14.3519H151.405L151.462 14.2099C151.5 14.0962 151.538 14.0015 151.576 13.9258ZM161.304 1.85126C161.323 1.79444 161.332 1.74708 161.332 1.7092C161.351 1.65238 161.37 1.60503 161.389 1.56715H158.264C158.302 1.51033 158.339 1.46298 158.377 1.4251C158.415 1.36828 158.453 1.32093 158.491 1.28305H161.787C161.938 1.1694 162.099 1.11258 162.27 1.11258H167.952C168.16 1.11258 168.321 1.1694 168.435 1.28305H165.139C165.177 1.32093 165.215 1.36828 165.253 1.4251C165.31 1.46298 165.347 1.51033 165.366 1.56715H168.463C168.501 1.68079 168.52 1.7755 168.52 1.85126H170.111C170.13 1.85126 170.139 1.86073 170.139 1.87967V2.13536H166.304V2.70357H167.895V3.12973H167.724V3.69795H166.702V4.26616H169.003V4.40821H169.173V4.97642H169.287V5.54463H169.088V6.11285H168.946V6.82311H169.429V7.39132H168.889V7.95954H169.003V8.10159H171.02V8.6698H172.071V8.95391H167.696V9.23801H169.145V9.80622H167.952V10.3744H168.974V10.6585H169.173V11.0847H172.98V11.3688H175.623V11.937H168.406V11.3688H165.764V11.0847H161.957V10.6585H161.758V10.3744H160.735V9.80622H161.929V9.23801H160.48V8.95391H164.855V8.6698H163.804V8.10159H161.787V7.95954H161.673V7.39132H162.213V6.82311H161.73V6.11285H161.872V5.54463H162.071V4.97642H161.957V4.40821H161.787V4.26616H159.485V3.69795H160.508V3.12973H160.679V2.70357H159.088V2.13536H162.923V1.85126H161.304ZM180.197 17.193H172.441V17.335H173.009V17.7612H177.043V17.9032H175.793V18.4715H177.782V18.8976H178.066V19.0397H177.867V19.1817H177.782V19.7499H177.839V20.1761H177.725V20.3181H177.583C177.564 20.356 177.554 20.4034 177.554 20.4602H177.867C177.81 20.6496 177.706 20.7917 177.554 20.8864H177.242C177.147 20.9621 177.015 21 176.844 21H162.525C162.355 21 162.222 20.9621 162.128 20.8864H162.412C162.241 20.7917 162.128 20.6496 162.071 20.4602H161.758C161.758 20.4223 161.749 20.3939 161.73 20.375C161.73 20.356 161.73 20.3371 161.73 20.3181H161.872V20.1761H161.985V19.7499H161.929V19.1817H162.014V19.0397H162.213V18.8976H161.929V18.4715H159.94V17.9032H161.19V17.7612H157.156V17.335H156.587V17.193H164.344V16.7668H161.19V16.3407H164.258V16.1986H157.553V15.7724H158.519V15.6304H162.213V15.4883H160.906V15.0622H163.122V14.494H160.877V14.2099H162.724V14.0678H161.872V13.6417H162.696V13.3575H161.645V13.0734H164.116V12.6473H164.827V12.3632H160.934V11.937H168.151V12.3632H172.043V12.6473H171.333V13.0734H168.861V13.3575H169.912V13.6417H169.088V14.0678H169.94V14.2099H168.094V14.494H170.338V15.0622H168.122V15.1758H175.992C176.257 15.1758 176.465 15.28 176.617 15.4883H177.924L178.009 15.6304H174.316L174.372 15.7724H173.378C173.397 15.8103 173.407 15.8672 173.407 15.9429V16.1986H180.111V16.3407H177.043V16.7668H180.197V17.193ZM198.038 16.0566H200.282V16.4827H195.964V17.0509H198.748V17.6191H196.305V18.1874H196.617V18.6135H196.418V18.8976H195.822V19.1817H195.793V19.4658H196.39V20.034H197.214V20.2329C197.214 20.2708 197.204 20.2992 197.186 20.3181H192.128C192.11 20.356 192.1 20.4034 192.1 20.4602H194.06C194.004 20.6496 193.899 20.7917 193.748 20.8864H193.208C193.113 20.9621 192.981 21 192.81 21H178.008C177.857 21 177.715 20.9621 177.582 20.8864H178.122C177.989 20.7917 177.885 20.6496 177.81 20.4602H175.821C175.802 20.4223 175.792 20.375 175.792 20.3181H180.878V20.034H180.054V19.4658H179.457V19.1817H179.486V18.8976H180.082V18.6135H180.281V18.1874H179.969V17.6191H182.412V17.0509H179.628V16.4827H183.946V16.0566H181.702V15.7724H182.355V15.4883H182.639V15.2042H179.486V14.9201H178.747V14.494H181.389V14.3519H179.287V14.0678H179.912V13.7837H180.366V13.3575H180.31V12.7893H180.026V12.2211H179.599V11.937H179.94V11.3688H179.628V11.0847H180.082V10.6585H180.196V10.2324H180.707V10.0903H180.224V9.52212H179.798V9.09596H179.912V8.6698H179.969V8.10159H180.395V7.53338H179.77V6.96516H179.855V6.39695H180.651V5.97079H180.224V5.54463H179.997V5.40258H181.19V4.97642H183.293V4.69232H182.44V4.40821H179.685V4.26616H179.997V3.84H180.026V3.41384H180.111V2.84563H180.082V2.13536H180.026V1.87967C180.026 1.80391 180.035 1.74708 180.054 1.7092H179.77C179.846 1.31146 180.092 1.11258 180.509 1.11258H195.083C195.519 1.11258 195.765 1.31146 195.822 1.7092H196.106C196.125 1.74708 196.134 1.80391 196.134 1.87967V2.13536H196.191V2.84563H196.22V3.41384H196.134V3.84H196.106V4.26616H195.793V4.40821H198.549V4.69232H199.402V4.97642H197.299V5.40258H196.106V5.54463H196.333V5.97079H196.759C196.721 6.1602 196.655 6.30225 196.561 6.39695H195.765C195.632 6.56742 195.443 6.65265 195.197 6.65265H186.674V6.96516H186.588V7.53338H187.213V8.10159H186.787V8.44252H194.685C194.894 8.44252 195.074 8.51828 195.225 8.6698H195.168C195.263 8.7645 195.329 8.90656 195.367 9.09596H195.282V9.52212H195.708V10.0903H196.191V10.2324H195.68V10.6585H195.566V11.0847H195.112V11.3688H195.424V11.937H195.083V12.2211H195.509V12.7893H195.793V12.903C195.793 13.1113 195.746 13.2628 195.651 13.3575H195.708C195.557 13.5659 195.348 13.6701 195.083 13.6701H187.185V13.7837H186.73V14.0678H186.105V14.3519H188.208V14.494H185.566V14.9201H186.304V15.2042H189.458V15.4599H198.208C198.303 15.4599 198.379 15.4694 198.436 15.4883H198.123C198.312 15.5452 198.455 15.6399 198.549 15.7724H197.896C197.972 15.8861 198.019 15.9808 198.038 16.0566Z" fill="white"/>
</svg>
