<svg width="1893" height="433" viewBox="0 0 1893 433" fill="none" xmlns="http://www.w3.org/2000/svg">
<g filter="url(#filter0_d_119_714)">
<path d="M1893 153.314L1780.1 108.243C1722.76 89.9084 1616.36 66.2264 1532.42 99.8394C1427.2 126.615 1360.3 193.297 1273.48 258.291C1146.12 353.631 998.687 360.175 916.831 297.64C840.401 254.611 775.773 153.314 775.773 153.314C775.773 153.314 668.528 65.8344 578.516 83.7537C488.294 101.431 366.297 87.4565 276.075 66.8735C186.063 46.2905 90.6654 129.763 45.4493 106.758L0.233254 83.7538L0.233247 -0.999743L45.4493 -0.999747C90.6654 -0.999751 181.098 -0.999759 271.109 -0.999767C361.331 -0.999775 450.922 -0.999782 541.144 -0.99979C631.156 -0.999798 721.588 -0.999806 811.599 -0.999814C901.821 -0.999822 991.412 -0.99983 1081.63 -0.999838C1171.65 -0.999845 1262.08 -0.999853 1352.09 -0.999861C1442.31 -0.999869 1531.9 -0.999877 1622.12 -0.999885C1712.14 -0.999893 1802.57 -0.999901 1847.78 -0.999904L1893 -0.999908L1893 153.314Z" fill="url(#paint0_linear_119_714)"/>
</g>
<defs>
<filter id="filter0_d_119_714" x="-67.2845" y="-41.5106" width="2027.8" height="474.463" filterUnits="userSpaceOnUse" color-interpolation-filters="sRGB">
<feFlood flood-opacity="0" result="BackgroundImageFix"/>
<feColorMatrix in="SourceAlpha" type="matrix" values="0 0 0 0 0 0 0 0 0 0 0 0 0 0 0 0 0 0 127 0" result="hardAlpha"/>
<feOffset dy="27.0071"/>
<feGaussianBlur stdDeviation="33.7589"/>
<feComposite in2="hardAlpha" operator="out"/>
<feColorMatrix type="matrix" values="0 0 0 0 0 0 0 0 0 0 0 0 0 0 0 0 0 0 0.25 0"/>
<feBlend mode="normal" in2="BackgroundImageFix" result="effect1_dropShadow_119_714"/>
<feBlend mode="normal" in="SourceGraphic" in2="effect1_dropShadow_119_714" result="shape"/>
</filter>
<linearGradient id="paint0_linear_119_714" x1="1046.78" y1="535.053" x2="961.408" y2="-59.0885" gradientUnits="userSpaceOnUse">
<stop offset="0.00699537" stop-color="#606060"/>
<stop offset="1"/>
</linearGradient>
</defs>
</svg>
