<svg width="1893" height="480" viewBox="0 0 1893 480" fill="none" xmlns="http://www.w3.org/2000/svg">
<g filter="url(#filter0_d_119_715)">
<path d="M0.23339 208.989L146.349 194.474C212.102 181.513 287.408 218.229 389.127 273.793C470.053 308.527 529.062 313.193 615.045 273.793C701.029 234.392 878.054 84.0486 923.575 44.6482C983.708 4.21095 1040.37 -2.83547 1130.39 -0.454803C1220.4 1.92587 1308.44 0.945573 1398.45 -0.454825C1488.67 -1.85522 1561.12 44.7883 1651.35 44.6482C1741.36 44.5082 1802.57 0.525428 1847.78 -0.454861C1802.57 -0.454857 1712.14 -0.45485 1622.12 -0.454843C1531.9 -0.454835 1442.31 -0.454828 1352.09 -0.454821C1262.08 -0.454814 1171.65 -0.454806 1081.63 -0.454799C991.412 -0.454792 901.821 -0.454785 811.599 -0.454777C721.588 -0.45477 631.155 -0.454763 541.144 -0.454756C450.922 -0.454748 361.331 -0.454741 271.109 -0.454734C181.098 -0.454727 90.6656 -0.454719 45.4495 -0.454716L0.23339 -0.454712L0.23339 208.989Z" fill="url(#paint0_linear_119_715)"/>
</g>
<defs>
<filter id="filter0_d_119_715" x="-139.303" y="-102.143" width="2126.62" height="581.561" filterUnits="userSpaceOnUse" color-interpolation-filters="sRGB">
<feFlood flood-opacity="0" result="BackgroundImageFix"/>
<feColorMatrix in="SourceAlpha" type="matrix" values="0 0 0 0 0 0 0 0 0 0 0 0 0 0 0 0 0 0 127 0" result="hardAlpha"/>
<feOffset dy="38.2601"/>
<feGaussianBlur stdDeviation="69.7684"/>
<feComposite in2="hardAlpha" operator="out"/>
<feColorMatrix type="matrix" values="0 0 0 0 0 0 0 0 0 0 0 0 0 0 0 0 0 0 0.25 0"/>
<feBlend mode="normal" in2="BackgroundImageFix" result="effect1_dropShadow_119_715"/>
<feBlend mode="normal" in="SourceGraphic" in2="effect1_dropShadow_119_715" result="shape"/>
</filter>
<linearGradient id="paint0_linear_119_715" x1="919.618" y1="447.957" x2="581.392" y2="-385.739" gradientUnits="userSpaceOnUse">
<stop stop-color="#626262"/>
<stop offset="0.998059"/>
</linearGradient>
</defs>
</svg>
