<svg width="1893" height="197" viewBox="0 0 1893 197" fill="none" xmlns="http://www.w3.org/2000/svg">
<g filter="url(#filter0_d_119_734)">
<path d="M-1 128.691V109.396C101.145 42.8739 270.968 124.872 428.884 116.423C586.801 108.154 761.637 50.0098 919.554 50.3694C1077.47 50.7289 1262.33 107.833 1420.25 101.901C1578.17 95.9688 1815.04 50.1678 1894 41V197H1815.04C1736.08 197 1578.17 197 1420.25 197C1262.33 197 1104.42 197 946.5 197C788.583 197 630.667 197 472.75 197C314.833 197 156.917 197 77.9583 197H-1V128.691Z" fill="url(#paint0_linear_119_734)"/>
</g>
<defs>
<filter id="filter0_d_119_734" x="-68.5178" y="0.489311" width="2030.04" height="291.036" filterUnits="userSpaceOnUse" color-interpolation-filters="sRGB">
<feFlood flood-opacity="0" result="BackgroundImageFix"/>
<feColorMatrix in="SourceAlpha" type="matrix" values="0 0 0 0 0 0 0 0 0 0 0 0 0 0 0 0 0 0 127 0" result="hardAlpha"/>
<feOffset dy="27.0071"/>
<feGaussianBlur stdDeviation="33.7589"/>
<feComposite in2="hardAlpha" operator="out"/>
<feColorMatrix type="matrix" values="0 0 0 0 0 0 0 0 0 0 0 0 0 0 0 0 0 0 0.25 0"/>
<feBlend mode="normal" in2="BackgroundImageFix" result="effect1_dropShadow_119_734"/>
<feBlend mode="normal" in="SourceGraphic" in2="effect1_dropShadow_119_734" result="shape"/>
</filter>
<linearGradient id="paint0_linear_119_734" x1="846.222" y1="-49.3688" x2="864.525" y2="228.128" gradientUnits="userSpaceOnUse">
<stop offset="0.00699537" stop-color="#606060"/>
<stop offset="1"/>
</linearGradient>
</defs>
</svg>
