<svg width="1893" height="502" viewBox="0 0 1893 502" fill="none" xmlns="http://www.w3.org/2000/svg">
<path d="M1893 233.052C1893 233.052 1721.68 166.477 1632.26 166.294C1542.62 166.112 1505.51 172.062 1421.2 256.659C1348.06 330.052 1295.84 478.827 1170.78 501.63C922.315 513.549 855.608 233.902 769.623 225.284C683.639 216.666 619.43 263.72 542.38 252.251C431.27 230.026 394.98 63.2303 306.761 113.274C217.986 170.769 42.9227 135.488 -1.99998 130.481L12.5169 216.666L12.5169 2.05639e-05L57.4394 1.66378e-05C102.362 1.27118e-05 192.207 4.8597e-06 281.635 -2.95587e-06C371.271 -1.07897e-05 460.281 -1.85688e-05 549.917 -2.64026e-05C639.344 -3.42182e-05 729.19 -4.20703e-05 818.617 -4.98858e-05C908.254 -5.77197e-05 997.263 -6.54987e-05 1086.9 -7.33326e-05C1176.33 -8.11481e-05 1266.17 -8.90002e-05 1355.6 -9.68158e-05C1445.24 -0.00010465 1534.25 -0.000112429 1623.88 -0.000120262C1713.31 -0.000128078 1803.15 -0.00013593 1848.08 -0.000139856L1893 -0.000143782L1893 233.052Z" fill="url(#paint0_linear_119_711)"/>
<defs>
<linearGradient id="paint0_linear_119_711" x1="1000.22" y1="841.622" x2="886.764" y2="97.8303" gradientUnits="userSpaceOnUse">
<stop stop-color="#99999A"/>
<stop offset="1"/>
</linearGradient>
</defs>
</svg>
