<svg width="156" height="17" viewBox="0 0 156 17" fill="none" xmlns="http://www.w3.org/2000/svg">
<path d="M21.4741 5.462V5.572H20.9461C20.9608 5.64533 20.9681 5.71867 20.9681 5.792C20.9681 5.86533 20.9681 5.93867 20.9681 6.012H17.1181C17.1181 6.20267 17.0228 6.34933 16.8321 6.452C16.7441 6.48133 16.6781 6.496 16.6341 6.496H12.1461C12.0874 6.496 12.0288 6.496 11.9701 6.496C11.9114 6.48133 11.8528 6.46667 11.7941 6.452H8.20809V6.562H10.1441C10.1294 6.63533 10.1221 6.70867 10.1221 6.782C10.1221 6.85533 10.1221 6.92867 10.1221 7.002H9.35209C9.33743 7.03133 9.33009 7.068 9.33009 7.112C9.33009 7.156 9.33009 7.19267 9.33009 7.222H9.39609V7.442H9.06609V7.882H10.1221V7.992H6.55809V8.212H7.68009V8.652H9.94609V8.762H9.02209V8.872H8.42809V9.312H10.1221C10.1368 9.37067 10.1441 9.42933 10.1441 9.488C10.1441 9.532 10.1441 9.58333 10.1441 9.642H10.7601V9.752H7.92209V9.972H7.28409V10.082H10.1441V10.104H14.5441C14.8228 10.104 14.9841 10.2433 15.0281 10.522H18.2841V10.852H18.1301L18.0861 11.292H17.8441L17.8221 11.512H18.3941C18.3941 11.556 18.3868 11.5927 18.3721 11.622H18.2401C18.2254 11.6513 18.2181 11.688 18.2181 11.732H18.9441L18.8781 12.062H18.1961C18.1961 12.0767 18.1888 12.0913 18.1741 12.106C18.1741 12.1207 18.1741 12.1427 18.1741 12.172H17.9981C17.9834 12.2307 17.9614 12.2893 17.9321 12.348C17.9174 12.392 17.9028 12.4433 17.8881 12.502H18.1521C18.1521 12.5167 18.1374 12.5533 18.1081 12.612H17.6681C17.6388 12.6853 17.6021 12.7587 17.5581 12.832C17.5288 12.9053 17.4921 12.9787 17.4481 13.052H17.8881L17.6901 13.382H17.8881L17.6681 13.712H17.5361C17.4774 13.7853 17.4114 13.8587 17.3381 13.932C17.2794 14.0053 17.2134 14.0787 17.1401 14.152H16.9641C16.9494 14.1667 16.9348 14.1813 16.9201 14.196C16.9054 14.2107 16.8834 14.2327 16.8541 14.262H15.9081L15.7981 14.372H20.2201C20.1321 14.4453 20.0441 14.5187 19.9561 14.592C19.8681 14.6653 19.7728 14.7387 19.6701 14.812H19.4281C19.2814 14.9147 19.1054 15.0247 18.9001 15.142H14.2581C14.1114 15.23 13.9574 15.3107 13.7961 15.384C13.6348 15.4427 13.4734 15.5087 13.3121 15.582H16.9421C16.8981 15.5967 16.8468 15.6113 16.7881 15.626C16.7441 15.6407 16.6928 15.6627 16.6341 15.692H15.7541C15.6954 15.7067 15.6368 15.7213 15.5781 15.736C15.5194 15.7507 15.4608 15.7727 15.4021 15.802H13.8181C13.2901 15.9487 12.7474 16.0587 12.1901 16.132H12.5421C12.3074 16.1613 12.0654 16.1833 11.8161 16.198C11.5668 16.2127 11.3174 16.22 11.0681 16.22C10.7894 16.22 10.5181 16.2127 10.2541 16.198C10.0048 16.1833 9.75543 16.1613 9.50609 16.132H9.15409C8.56743 16.0587 8.02476 15.9487 7.52609 15.802H9.11009C9.05143 15.7727 8.99276 15.7507 8.93409 15.736C8.89009 15.7213 8.83876 15.7067 8.78009 15.692H9.68209L9.37409 15.582H5.74409C5.59743 15.5087 5.44343 15.4427 5.28209 15.384C5.13543 15.3107 4.98876 15.23 4.84209 15.142H9.50609C9.41809 15.0833 9.33009 15.032 9.24209 14.988C9.15409 14.9293 9.07343 14.8707 9.00009 14.812H9.24209C9.06609 14.68 8.89743 14.5333 8.73609 14.372H4.29209C4.27743 14.3427 4.26276 14.3207 4.24809 14.306C4.23343 14.2913 4.21143 14.2767 4.18209 14.262H5.15009C5.13543 14.2327 5.11343 14.2107 5.08409 14.196C5.06943 14.1813 5.05476 14.1667 5.04009 14.152H5.21609C5.08409 14.0053 4.95943 13.8587 4.84209 13.712H4.97409L4.77609 13.382H4.57809L4.38009 13.052H3.94009L3.74209 12.612H4.20409L4.16009 12.502H3.87409C3.85943 12.4433 3.84476 12.392 3.83009 12.348C3.81543 12.2893 3.79343 12.2307 3.76409 12.172H3.94009L3.89609 12.062H4.57809C4.56343 12.0033 4.54876 11.952 4.53409 11.908C4.51943 11.8493 4.50476 11.7907 4.49009 11.732H4.13809C4.12343 11.7027 4.11609 11.666 4.11609 11.622H3.74209C3.72743 11.5927 3.72009 11.556 3.72009 11.512H3.74209C3.74209 11.4533 3.72743 11.38 3.69809 11.292H2.44409L2.37809 10.852H4.07209C4.05743 10.7933 4.05009 10.742 4.05009 10.698C4.05009 10.6393 4.04276 10.5807 4.02809 10.522H4.44609C4.44609 10.478 4.44609 10.434 4.44609 10.39C4.44609 10.346 4.43876 10.302 4.42409 10.258V10.082H1.56409V9.972H2.20209V9.752H5.04009V9.642H4.42409C4.42409 9.58333 4.41676 9.532 4.40209 9.488C4.40209 9.42933 4.40209 9.37067 4.40209 9.312H2.70809V8.872H3.30209V8.762H4.22609V8.652H1.96009V8.212H0.838094V7.992H4.40209V7.882H3.34609V7.442H3.67609V7.222H3.61009V7.002H4.40209V6.562H2.48809V6.452H6.71209V6.342C6.72676 6.28333 6.73409 6.232 6.73409 6.188C6.73409 6.12933 6.73409 6.07067 6.73409 6.012H5.56809C5.56809 5.93867 5.56809 5.86533 5.56809 5.792C5.58276 5.71867 5.59743 5.64533 5.61209 5.572H6.31609C6.33076 5.54267 6.33809 5.506 6.33809 5.462H1.78409C1.79876 5.43267 1.80609 5.396 1.80609 5.352C1.80609 5.308 1.81343 5.27133 1.82809 5.242H5.83209L5.94209 4.802H5.04009L5.10609 4.582H3.63209L3.67609 4.472H4.16009C4.17476 4.44267 4.18943 4.406 4.20409 4.362C4.21876 4.318 4.23343 4.28133 4.24809 4.252H4.00609L4.09409 4.032H4.20409C4.23343 3.97333 4.26276 3.922 4.29209 3.878C4.32143 3.81933 4.34343 3.76067 4.35809 3.702H4.38009L4.57809 3.372H4.51209C4.54143 3.31333 4.57076 3.262 4.60009 3.218C4.64409 3.15933 4.68809 3.10067 4.73209 3.042H4.55609C4.61476 2.96867 4.67343 2.89533 4.73209 2.822C4.79076 2.734 4.84943 2.66067 4.90809 2.602H4.71009C4.72476 2.57267 4.73943 2.55067 4.75409 2.536C4.76876 2.52133 4.78343 2.50667 4.79809 2.492H4.57809L4.68809 2.382H4.64409C4.67343 2.35267 4.69543 2.33067 4.71009 2.316C4.72476 2.30133 4.73943 2.28667 4.75409 2.272H4.35809C4.38743 2.24267 4.42409 2.206 4.46809 2.162C4.51209 2.118 4.55609 2.08133 4.60009 2.052H5.12809C5.20143 1.99333 5.27476 1.942 5.34809 1.898C5.42143 1.83933 5.49476 1.78067 5.56809 1.722H5.32609L5.50209 1.612H5.12809C5.15743 1.58267 5.18676 1.56067 5.21609 1.546C5.24543 1.53133 5.27476 1.51667 5.30409 1.502H6.44809C6.55076 1.44333 6.65343 1.392 6.75609 1.348C6.85876 1.28933 6.96143 1.23067 7.06409 1.172H6.99809C7.08609 1.128 7.17409 1.09133 7.26209 1.062C7.35009 1.018 7.43809 0.981333 7.52609 0.952H7.94409C7.98809 0.922666 8.03209 0.900666 8.07609 0.885999C8.13476 0.871333 8.19343 0.856666 8.25209 0.842H7.59209C8.03209 0.680666 8.50143 0.570666 9.00009 0.511999H9.59409C10.1661 0.423999 10.7674 0.379999 11.3981 0.379999C12.0141 0.379999 12.6081 0.423999 13.1801 0.511999H12.6081C13.0921 0.570666 13.5761 0.680666 14.0601 0.842H14.7201C14.7788 0.856666 14.8301 0.871333 14.8741 0.885999C14.9328 0.900666 14.9914 0.922666 15.0501 0.952H14.6321C14.8521 1.02533 15.0354 1.09867 15.1821 1.172H15.2481C15.3654 1.23067 15.4754 1.28933 15.5781 1.348C15.6808 1.392 15.7834 1.44333 15.8861 1.502H14.7641C14.7934 1.51667 14.8228 1.53133 14.8521 1.546C14.8814 1.56067 14.9108 1.58267 14.9401 1.612H15.3141C15.3434 1.62667 15.3728 1.64133 15.4021 1.656C15.4314 1.67067 15.4534 1.69267 15.4681 1.722H15.7101L16.1501 2.052H15.6001L15.8641 2.272H16.2601L16.3921 2.382H16.4141L16.5241 2.492H16.7441L16.8541 2.602H17.0521C17.1108 2.66067 17.1694 2.734 17.2281 2.822C17.2868 2.89533 17.3454 2.96867 17.4041 3.042H17.5581C17.6021 3.10067 17.6388 3.15933 17.6681 3.218C17.7121 3.262 17.7488 3.31333 17.7781 3.372H17.8441C17.8734 3.43067 17.9028 3.48933 17.9321 3.548C17.9614 3.592 17.9908 3.64333 18.0201 3.702H17.9761C18.0054 3.76067 18.0348 3.81933 18.0641 3.878C18.0934 3.922 18.1154 3.97333 18.1301 4.032H18.0201L18.0861 4.252H18.3281L18.3941 4.472H17.9101C17.9101 4.48667 17.9101 4.50133 17.9101 4.516C17.9248 4.53067 17.9321 4.55267 17.9321 4.582H19.4061C19.4061 4.64067 19.4208 4.714 19.4501 4.802H17.4481L17.5141 5.242H18.7901L18.8121 5.462H21.4741ZM11.3761 4.802H12.9381C12.7034 4.714 12.4394 4.67 12.1461 4.67C11.8528 4.67 11.5961 4.714 11.3761 4.802ZM15.1821 5.858C15.1674 5.79933 15.1528 5.748 15.1381 5.704C15.1234 5.66 15.1014 5.616 15.0721 5.572H15.6001L15.5341 5.462H12.8941C12.8794 5.418 12.8574 5.38133 12.8281 5.352C12.7988 5.308 12.7694 5.27133 12.7401 5.242H7.74609C7.73143 5.27133 7.70943 5.308 7.68009 5.352C7.66543 5.38133 7.64343 5.418 7.61409 5.462H12.1681L12.1241 5.572H11.4201C11.3908 5.63067 11.3688 5.704 11.3541 5.792C11.3394 5.86533 11.3248 5.93867 11.3101 6.012H15.2481L15.1821 5.858ZM12.5861 10.522H9.77009L9.83609 10.852H8.14209C8.17143 10.94 8.20076 11.0207 8.23009 11.094C8.25943 11.1527 8.29609 11.2187 8.34009 11.292H9.59409C9.62343 11.336 9.65276 11.38 9.68209 11.424C9.71143 11.4533 9.74076 11.4827 9.77009 11.512H9.72609L9.83609 11.622H10.2101C10.2394 11.6367 10.2688 11.6587 10.2981 11.688C10.3274 11.7027 10.3568 11.7173 10.3861 11.732H10.7381C10.9874 11.864 11.2881 11.93 11.6401 11.93C11.9921 11.93 12.2854 11.864 12.5201 11.732H11.7941L11.9701 11.622H12.1021L12.2341 11.512H11.6621C11.6914 11.4827 11.7208 11.4533 11.7501 11.424C11.7941 11.38 11.8234 11.336 11.8381 11.292H12.0801C12.1681 11.16 12.2414 11.0133 12.3001 10.852H12.4541L12.4981 10.742C12.5274 10.654 12.5568 10.5807 12.5861 10.522ZM36.0909 10.852V10.962H37.8069V11.182H37.7189V11.512H33.1649V11.622H33.9569V11.952H36.3769V12.172H35.1229V12.612H35.0569V12.722H33.6049V13.052H35.7609V13.162H35.8489V13.492H36.0689V13.932H31.8229V14.262H36.3109V14.482H34.8149V14.812H34.6169V15.032H35.1229V15.252H34.7929V15.472H35.5629L35.4969 15.692H36.5309C36.5015 15.736 36.4649 15.78 36.4209 15.824C36.3915 15.8533 36.3549 15.8827 36.3109 15.912H36.8169C36.7435 15.9707 36.6409 16 36.5089 16H32.1969C32.0649 16 31.9622 15.9707 31.8889 15.912H31.3829C31.2802 15.868 31.2069 15.7947 31.1629 15.692H30.1289L30.0629 15.472H29.2929V15.252H29.6229V15.032H29.1169V14.812H29.3149V14.482H30.8109V14.262H26.8289V14.482H25.0029V14.812H26.2569V15.032H25.9489V15.252H27.0929V15.472H25.8609L25.7949 15.692H26.2789C26.2202 15.7947 26.1542 15.868 26.0809 15.912H25.5529C25.4795 15.9707 25.3769 16 25.2449 16H20.9329C20.7862 16 20.6762 15.9707 20.6029 15.912H21.1309C21.0575 15.868 20.9915 15.7947 20.9329 15.692H20.4269C20.3829 15.6187 20.3609 15.5453 20.3609 15.472H21.5929V15.252H20.4489V15.032H20.7569V14.812H19.5029V14.482H21.3289V14.262H22.3849V13.932H18.9969V13.492H20.2509V13.162H21.1309V13.052H20.5149V12.722H19.4809V12.612H19.7009V12.172H20.4049V11.952H20.7349V11.622H19.1509V11.512H23.2209V11.182H18.2489V10.962H22.9349V10.852H20.6469V10.522H21.9669V10.412H22.2309V10.302H22.1209V9.862H19.9429V9.532H20.6689V9.422H20.4709V9.092H20.5589V8.982H20.5809V8.762H20.6029V8.652H20.3169V8.542H19.4589V8.212H19.7449V7.882H19.3049V7.552H20.4049V7.112H20.1629V6.892H18.5569V6.782H21.1309V6.562H21.7469V6.452H15.8069V6.342H19.3049V6.232H20.5589V5.902H18.3149V5.462H17.6989V5.132H20.3389V4.692H20.5589V4.362H21.9669V4.252H20.7569V3.812H21.7469V3.592H20.5589V3.482H20.1409V3.262H19.5029V3.042H18.7329V2.602H20.1189V2.272H20.9549V1.942H20.5589V1.722H20.0089V1.612H20.3169V1.392H20.2509V1.194C20.2509 1.09133 20.2729 1.01067 20.3169 0.952H21.7249C21.7395 0.907999 21.7615 0.871333 21.7909 0.842C21.8202 0.797999 21.8495 0.761333 21.8789 0.732H25.2669C25.3549 0.643999 25.4795 0.599999 25.6409 0.599999H34.0889C34.2355 0.599999 34.3602 0.643999 34.4629 0.732H37.8509C37.8802 0.761333 37.9095 0.797999 37.9389 0.842C37.9829 0.871333 38.0122 0.907999 38.0269 0.952H35.1889C35.2182 1.04 35.2329 1.12067 35.2329 1.194V1.392H35.3429V1.612H35.6509V1.722H35.0569V1.942H34.7929V2.272H35.6509V2.602H33.5829V3.042H35.9589V3.262H34.2429V3.482H34.9469V3.592H34.5949V3.812H36.2449V4.252H33.8249V4.362H35.6949V4.692H35.3649V5.132H33.6049V5.462H32.8789V5.902H35.1229V6.232H33.8689V6.342H30.3709V6.452H36.3109V6.562H35.6949V6.782H33.1209V6.892H34.7269V7.112H34.9689V7.552H33.8689V7.882H34.3089V8.212H34.0229V8.542H34.8809V8.652H35.1669V8.762H35.1449V8.982H35.1229V9.092H35.0349V9.422H35.2329V9.532H34.5069V9.862H36.6849V10.302H36.7949V10.412H36.5309V10.522H35.2109V10.852H36.0909ZM23.1989 5.132V5.462H23.8149V5.814H27.3789V5.462H28.1049V5.132H29.8649V4.692H30.1949V4.362H28.3249V4.252H30.7449V3.812H29.0949V3.592H29.4469V3.482H28.7429V3.262H30.4589V3.042H28.0829V2.602H30.1509V2.272H29.2929V1.942H29.5569V1.722H30.1509V1.612H29.8429V1.392H29.7329V1.194C29.7329 1.12067 29.7475 1.04 29.7769 0.952H32.6149C32.6442 0.907999 32.6735 0.871333 32.7029 0.842C32.7322 0.797999 32.7615 0.761333 32.7909 0.732H26.9389C27.0122 0.790666 27.0709 0.863999 27.1149 0.952H25.7069C25.7362 0.995999 25.7509 1.07667 25.7509 1.194V1.392H25.8169V1.612H25.5089V1.722H26.0589V1.942H26.4549V2.272H25.6189V2.602H24.2329V3.042H25.0029V3.262H25.6409V3.482H26.0589V3.592H27.2469V3.812H26.2569V4.252H27.4669V4.362H26.0589V4.692H25.8389V5.132H23.1989ZM32.3069 11.182V10.962H30.5909V10.852H29.7109V10.654H26.1469V10.852H28.4349V10.962H23.7489V11.182H28.7209V11.512H32.2189V11.182H32.3069ZM30.8769 11.952H28.4569V11.622H27.6649V11.512H24.6509V11.622H26.2349V11.952H25.9049V12.172H25.2009V12.612H24.9809V12.722H26.0149V13.052H26.6309V13.162H25.7509V13.492H24.4969V13.932H30.5689V13.492H30.3489V13.162H30.2609V13.052H28.1049V12.722H29.5569V12.612H29.6229V12.172H30.8769V11.952ZM53.547 14.812L53.701 15.252H53.327L53.371 15.362C53.371 15.3767 53.371 15.3987 53.371 15.428C53.3857 15.4427 53.393 15.4573 53.393 15.472H53.261V15.516C53.261 15.692 53.195 15.824 53.063 15.912H53.085C53.0117 15.9707 52.9163 16 52.799 16H48.729C48.6263 16 48.5383 15.9927 48.465 15.978C48.4063 15.9487 48.3403 15.9267 48.267 15.912C48.1497 15.8533 48.0617 15.7873 48.003 15.714C47.9443 15.626 47.9003 15.5453 47.871 15.472H47.981V15.45L47.937 15.362L47.893 15.252H48.267L48.113 14.812H47.695L47.629 14.592H48.531L48.377 14.152H48.113L48.047 13.998H43.317L43.273 14.152H43.009L42.855 14.592H42.613L42.525 14.812H42.393L42.239 15.252H42.261L42.217 15.362L42.195 15.45L42.173 15.472H42.063C42.0337 15.5453 41.9897 15.626 41.931 15.714C41.8723 15.7873 41.7843 15.8533 41.667 15.912H42.327C42.2683 15.9267 42.2023 15.9487 42.129 15.978C42.0557 15.9927 41.9677 16 41.865 16H37.795C37.6777 16 37.5897 15.9707 37.531 15.912H36.871C36.7243 15.8093 36.651 15.6773 36.651 15.516V15.472H36.783C36.783 15.428 36.7903 15.3913 36.805 15.362L36.827 15.252H36.805L36.959 14.812H37.091L37.179 14.592H37.421L37.575 14.152H37.817L37.971 13.712H37.113L37.201 13.492H37.135L37.245 13.162H37.465L37.509 13.052H37.025L37.179 12.612H37.927L37.993 12.392H37.311L37.355 12.282H37.465L37.619 11.842H37.553L37.663 11.512H37.751L37.905 11.072H38.191L38.301 10.742L38.345 10.632H39.445L39.489 10.522H39.423L39.533 10.192H38.301L38.455 9.752H38.851L38.895 9.642H38.653L38.697 9.532H39.401L39.555 9.092H38.697L38.785 8.872H39.115L39.269 8.432H39.071L39.181 8.102H39.423L39.577 7.662H39.511L39.555 7.552H39.049L39.137 7.332H39.621L39.731 7.002H39.511L39.533 6.892H39.929L40.083 6.452H39.599L39.709 6.122H39.467L39.533 5.902H38.015L38.081 5.682H37.795L37.949 5.242H37.663L37.795 4.912H38.653L38.807 4.472H41.007L41.117 4.142H40.061L40.149 3.922H40.963L41.117 3.482H40.391L40.501 3.152H40.963L41.117 2.712H41.051L41.205 2.272H40.589L40.611 2.162H42.723L42.877 1.722H42.811L42.855 1.612H42.085L42.173 1.326L42.239 1.172H42.459L42.591 0.952H42.525C42.5983 0.849333 42.701 0.768666 42.833 0.709999C42.965 0.636666 43.1263 0.599999 43.317 0.599999H48.091C48.2817 0.599999 48.443 0.636666 48.575 0.709999C48.707 0.768666 48.8097 0.849333 48.883 0.952H48.971L49.103 1.172H48.883C48.9123 1.23067 48.927 1.282 48.927 1.326L49.037 1.612H49.807L49.829 1.722H49.895L50.049 2.162H47.959L48.003 2.272H48.619L48.773 2.712H48.839L48.993 3.152H48.531L48.641 3.482H49.367L49.521 3.922H48.707L48.795 4.142H49.851L49.961 4.472H47.761L47.915 4.912H47.057L47.167 5.242H47.431L47.585 5.682H46.727L46.815 5.902H50.313L50.379 6.122H50.203L50.313 6.452H49.873L50.027 6.892H49.499L49.521 7.002H50.313L50.423 7.332H50.445L50.533 7.552H49.807L49.851 7.662H50.555L50.709 8.102H50.951L51.061 8.432H50.995L51.149 8.872H51.501L51.589 9.092H50.951L51.105 9.532H51.545L51.567 9.642H51.457L51.501 9.752H51.105L51.237 10.192H52.491L52.601 10.522H52.667L52.711 10.632H51.589L51.633 10.742H51.655L51.765 11.072H51.479L51.633 11.512H51.523L51.655 11.842H51.721L51.875 12.282H51.765L51.809 12.392H52.491L52.579 12.612H51.809L51.963 13.052H52.447L52.491 13.162H52.271L52.403 13.492H52.447L52.535 13.712H53.393L53.547 14.152H53.811L53.965 14.592H53.063L53.129 14.812H53.547ZM44.351 6.122H44.615L44.505 6.452H45.407L45.297 6.122H45.473L45.407 5.902H44.417L44.351 6.122ZM45.077 6.892L44.967 6.518L44.857 6.892H45.077ZM43.757 9.532L43.713 9.642H43.955L43.933 9.708H46.419L46.397 9.642H46.507L46.485 9.532H46.045L45.913 9.092H46.551L46.485 8.872H46.111L45.979 8.432H46.045L45.957 8.102H45.715L45.583 7.662H44.879L44.835 7.552H45.561L45.495 7.332H45.473L45.363 7.002H44.659L44.571 7.332H44.087L44.021 7.552H44.505L44.483 7.662H44.549L44.417 8.102H44.175L44.065 8.432H44.263L44.131 8.872H43.801L43.735 9.092H44.593L44.461 9.532H43.757ZM67.815 2.602H63.723V3.042H65.285V3.372H66.979V3.702H66.935V4.032H67.573V4.472H65.175V4.582H64.713V4.736C64.713 4.83867 64.691 4.934 64.647 5.022H66.209C66.1064 5.22733 65.9377 5.33 65.703 5.33H62.051V5.352H62.271V5.792H62.315V6.232H62.205V6.672H61.919V7.002H63.019V7.222H62.095V7.552H61.611V7.992H62.447V8.212H62.293V8.652H62.139V9.092H61.875V9.532H61.633V9.862H62.447V10.192H62.117V10.632H62.249V10.742H62.403V10.962H63.503V11.292H62.755V11.732H63.085V12.172H62.161V12.612H62.535V12.832H62.689V13.162H63.041V13.602H62.909V13.932H62.337V14.262H62.271V14.482H62.249V14.812H62.491V15.142H62.293V15.406C62.293 15.4793 62.2857 15.538 62.271 15.582H62.051C62.007 15.7287 61.9264 15.8387 61.809 15.912H61.853C61.7797 15.9707 61.677 16 61.545 16H57.145C57.0277 16 56.9177 15.9707 56.815 15.912H56.771C56.6684 15.8387 56.5877 15.7287 56.529 15.582H56.727C56.7124 15.538 56.705 15.4793 56.705 15.406V15.142H56.903V14.812H56.661V14.482H56.683V14.262H56.749V13.932H57.321V13.602H57.453V13.162H57.101V12.832H56.947V12.612H56.573V12.172H57.497V11.732H57.167V11.292H57.915V10.962H56.815V10.742H56.661V10.632H56.529V10.192H56.859V9.862H56.045V9.532H56.287V9.092H56.551V8.652H56.705V8.212H56.859V7.992H56.023V7.552H56.507V7.222H57.431V7.002H56.331V6.672H56.617V6.232H56.727V5.792H56.683V5.352H56.463V5.33H52.811C52.591 5.33 52.415 5.22733 52.283 5.022H50.721C50.7064 4.978 50.6917 4.934 50.677 4.89C50.6477 4.846 50.633 4.79467 50.633 4.736V4.582H51.095V4.472H53.493V4.032H52.855V3.702H52.899V3.372H51.205V3.042H49.643V2.602H53.735V2.272H51.447V1.832H51.887V1.392H52.459V1.282H52.789V1.194C52.789 1.04733 52.833 0.93 52.921 0.842H52.437C52.5544 0.680666 52.7157 0.599999 52.921 0.599999H65.813C66.0184 0.599999 66.1797 0.680666 66.297 0.842H66.759C66.8324 0.944666 66.869 1.062 66.869 1.194V1.282H66.539V1.392H65.967V1.832H65.527V2.272H67.815V2.602Z" fill="white"/>
<path d="M85.8293 5.462V5.572H85.3013C85.3159 5.64533 85.3233 5.71867 85.3233 5.792C85.3233 5.86533 85.3233 5.93867 85.3233 6.012H81.4733C81.4733 6.20267 81.3779 6.34933 81.1873 6.452C81.0993 6.48133 81.0333 6.496 80.9893 6.496H76.5013C76.4426 6.496 76.3839 6.496 76.3253 6.496C76.2666 6.48133 76.2079 6.46667 76.1493 6.452H72.5633V6.562H74.4993C74.4846 6.63533 74.4773 6.70867 74.4773 6.782C74.4773 6.85533 74.4773 6.92867 74.4773 7.002H73.7073C73.6926 7.03133 73.6853 7.068 73.6853 7.112C73.6853 7.156 73.6853 7.19267 73.6853 7.222H73.7513V7.442H73.4213V7.882H74.4773V7.992H70.9133V8.212H72.0353V8.652H74.3013V8.762H73.3773V8.872H72.7833V9.312H74.4773C74.4919 9.37067 74.4993 9.42933 74.4993 9.488C74.4993 9.532 74.4993 9.58333 74.4993 9.642H75.1153V9.752H72.2773V9.972H71.6393V10.082H74.4993V10.104H78.8993C79.1779 10.104 79.3393 10.2433 79.3833 10.522H82.6393V10.852H82.4853L82.4413 11.292H82.1993L82.1773 11.512H82.7493C82.7493 11.556 82.7419 11.5927 82.7273 11.622H82.5953C82.5806 11.6513 82.5733 11.688 82.5733 11.732H83.2993L83.2333 12.062H82.5513C82.5513 12.0767 82.5439 12.0913 82.5293 12.106C82.5293 12.1207 82.5293 12.1427 82.5293 12.172H82.3533C82.3386 12.2307 82.3166 12.2893 82.2873 12.348C82.2726 12.392 82.2579 12.4433 82.2433 12.502H82.5073C82.5073 12.5167 82.4926 12.5533 82.4633 12.612H82.0233C81.9939 12.6853 81.9573 12.7587 81.9133 12.832C81.8839 12.9053 81.8473 12.9787 81.8033 13.052H82.2433L82.0453 13.382H82.2433L82.0233 13.712H81.8913C81.8326 13.7853 81.7666 13.8587 81.6933 13.932C81.6346 14.0053 81.5686 14.0787 81.4953 14.152H81.3193C81.3046 14.1667 81.2899 14.1813 81.2753 14.196C81.2606 14.2107 81.2386 14.2327 81.2093 14.262H80.2633L80.1533 14.372H84.5753C84.4873 14.4453 84.3993 14.5187 84.3113 14.592C84.2233 14.6653 84.1279 14.7387 84.0253 14.812H83.7833C83.6366 14.9147 83.4606 15.0247 83.2553 15.142H78.6133C78.4666 15.23 78.3126 15.3107 78.1513 15.384C77.9899 15.4427 77.8286 15.5087 77.6673 15.582H81.2973C81.2533 15.5967 81.2019 15.6113 81.1433 15.626C81.0993 15.6407 81.0479 15.6627 80.9893 15.692H80.1093C80.0506 15.7067 79.9919 15.7213 79.9333 15.736C79.8746 15.7507 79.8159 15.7727 79.7573 15.802H78.1733C77.6453 15.9487 77.1026 16.0587 76.5453 16.132H76.8973C76.6626 16.1613 76.4206 16.1833 76.1713 16.198C75.9219 16.2127 75.6726 16.22 75.4233 16.22C75.1446 16.22 74.8733 16.2127 74.6093 16.198C74.3599 16.1833 74.1106 16.1613 73.8613 16.132H73.5093C72.9226 16.0587 72.3799 15.9487 71.8813 15.802H73.4653C73.4066 15.7727 73.3479 15.7507 73.2893 15.736C73.2453 15.7213 73.1939 15.7067 73.1353 15.692H74.0373L73.7293 15.582H70.0993C69.9526 15.5087 69.7986 15.4427 69.6373 15.384C69.4906 15.3107 69.3439 15.23 69.1973 15.142H73.8613C73.7733 15.0833 73.6853 15.032 73.5973 14.988C73.5093 14.9293 73.4286 14.8707 73.3553 14.812H73.5973C73.4213 14.68 73.2526 14.5333 73.0913 14.372H68.6473C68.6326 14.3427 68.6179 14.3207 68.6033 14.306C68.5886 14.2913 68.5666 14.2767 68.5373 14.262H69.5053C69.4906 14.2327 69.4686 14.2107 69.4393 14.196C69.4246 14.1813 69.4099 14.1667 69.3953 14.152H69.5713C69.4393 14.0053 69.3146 13.8587 69.1973 13.712H69.3293L69.1313 13.382H68.9333L68.7353 13.052H68.2953L68.0973 12.612H68.5593L68.5153 12.502H68.2293C68.2146 12.4433 68.1999 12.392 68.1853 12.348C68.1706 12.2893 68.1486 12.2307 68.1193 12.172H68.2953L68.2513 12.062H68.9333C68.9186 12.0033 68.9039 11.952 68.8893 11.908C68.8746 11.8493 68.8599 11.7907 68.8453 11.732H68.4933C68.4786 11.7027 68.4713 11.666 68.4713 11.622H68.0973C68.0826 11.5927 68.0753 11.556 68.0753 11.512H68.0973C68.0973 11.4533 68.0826 11.38 68.0533 11.292H66.7993L66.7333 10.852H68.4273C68.4126 10.7933 68.4053 10.742 68.4053 10.698C68.4053 10.6393 68.3979 10.5807 68.3833 10.522H68.8013C68.8013 10.478 68.8013 10.434 68.8013 10.39C68.8013 10.346 68.7939 10.302 68.7793 10.258V10.082H65.9193V9.972H66.5573V9.752H69.3953V9.642H68.7793C68.7793 9.58333 68.7719 9.532 68.7573 9.488C68.7573 9.42933 68.7573 9.37067 68.7573 9.312H67.0633V8.872H67.6573V8.762H68.5813V8.652H66.3153V8.212H65.1933V7.992H68.7573V7.882H67.7013V7.442H68.0313V7.222H67.9653V7.002H68.7573V6.562H66.8433V6.452H71.0673V6.342C71.0819 6.28333 71.0893 6.232 71.0893 6.188C71.0893 6.12933 71.0893 6.07067 71.0893 6.012H69.9233C69.9233 5.93867 69.9233 5.86533 69.9233 5.792C69.9379 5.71867 69.9526 5.64533 69.9673 5.572H70.6713C70.6859 5.54267 70.6933 5.506 70.6933 5.462H66.1393C66.1539 5.43267 66.1613 5.396 66.1613 5.352C66.1613 5.308 66.1686 5.27133 66.1833 5.242H70.1873L70.2973 4.802H69.3953L69.4613 4.582H67.9873L68.0313 4.472H68.5153C68.5299 4.44267 68.5446 4.406 68.5593 4.362C68.5739 4.318 68.5886 4.28133 68.6033 4.252H68.3613L68.4493 4.032H68.5593C68.5886 3.97333 68.6179 3.922 68.6473 3.878C68.6766 3.81933 68.6986 3.76067 68.7133 3.702H68.7353L68.9333 3.372H68.8673C68.8966 3.31333 68.9259 3.262 68.9553 3.218C68.9993 3.15933 69.0433 3.10067 69.0873 3.042H68.9113C68.9699 2.96867 69.0286 2.89533 69.0873 2.822C69.1459 2.734 69.2046 2.66067 69.2633 2.602H69.0653C69.0799 2.57267 69.0946 2.55067 69.1093 2.536C69.1239 2.52133 69.1386 2.50667 69.1533 2.492H68.9333L69.0433 2.382H68.9993C69.0286 2.35267 69.0506 2.33067 69.0653 2.316C69.0799 2.30133 69.0946 2.28667 69.1093 2.272H68.7133C68.7426 2.24267 68.7793 2.206 68.8233 2.162C68.8673 2.118 68.9113 2.08133 68.9553 2.052H69.4833C69.5566 1.99333 69.6299 1.942 69.7033 1.898C69.7766 1.83933 69.8499 1.78067 69.9233 1.722H69.6813L69.8573 1.612H69.4833C69.5126 1.58267 69.5419 1.56067 69.5713 1.546C69.6006 1.53133 69.6299 1.51667 69.6593 1.502H70.8033C70.9059 1.44333 71.0086 1.392 71.1113 1.348C71.2139 1.28933 71.3166 1.23067 71.4193 1.172H71.3533C71.4413 1.128 71.5293 1.09133 71.6173 1.062C71.7053 1.018 71.7933 0.981333 71.8813 0.952H72.2993C72.3433 0.922666 72.3873 0.900666 72.4313 0.885999C72.4899 0.871333 72.5486 0.856666 72.6073 0.842H71.9473C72.3873 0.680666 72.8566 0.570666 73.3553 0.511999H73.9493C74.5213 0.423999 75.1226 0.379999 75.7533 0.379999C76.3693 0.379999 76.9633 0.423999 77.5353 0.511999H76.9633C77.4473 0.570666 77.9313 0.680666 78.4153 0.842H79.0753C79.1339 0.856666 79.1853 0.871333 79.2293 0.885999C79.2879 0.900666 79.3466 0.922666 79.4053 0.952H78.9873C79.2073 1.02533 79.3906 1.09867 79.5373 1.172H79.6033C79.7206 1.23067 79.8306 1.28933 79.9333 1.348C80.0359 1.392 80.1386 1.44333 80.2413 1.502H79.1193C79.1486 1.51667 79.1779 1.53133 79.2073 1.546C79.2366 1.56067 79.2659 1.58267 79.2953 1.612H79.6693C79.6986 1.62667 79.7279 1.64133 79.7573 1.656C79.7866 1.67067 79.8086 1.69267 79.8233 1.722H80.0653L80.5053 2.052H79.9553L80.2193 2.272H80.6153L80.7473 2.382H80.7693L80.8793 2.492H81.0993L81.2093 2.602H81.4073C81.4659 2.66067 81.5246 2.734 81.5833 2.822C81.6419 2.89533 81.7006 2.96867 81.7593 3.042H81.9133C81.9573 3.10067 81.9939 3.15933 82.0233 3.218C82.0673 3.262 82.1039 3.31333 82.1333 3.372H82.1993C82.2286 3.43067 82.2579 3.48933 82.2873 3.548C82.3166 3.592 82.3459 3.64333 82.3753 3.702H82.3313C82.3606 3.76067 82.3899 3.81933 82.4193 3.878C82.4486 3.922 82.4706 3.97333 82.4853 4.032H82.3753L82.4413 4.252H82.6833L82.7493 4.472H82.2653C82.2653 4.48667 82.2653 4.50133 82.2653 4.516C82.2799 4.53067 82.2873 4.55267 82.2873 4.582H83.7613C83.7613 4.64067 83.7759 4.714 83.8053 4.802H81.8033L81.8693 5.242H83.1453L83.1673 5.462H85.8293ZM75.7313 4.802H77.2933C77.0586 4.714 76.7946 4.67 76.5013 4.67C76.2079 4.67 75.9513 4.714 75.7313 4.802ZM79.5373 5.858C79.5226 5.79933 79.5079 5.748 79.4933 5.704C79.4786 5.66 79.4566 5.616 79.4273 5.572H79.9553L79.8893 5.462H77.2493C77.2346 5.418 77.2126 5.38133 77.1833 5.352C77.1539 5.308 77.1246 5.27133 77.0953 5.242H72.1013C72.0866 5.27133 72.0646 5.308 72.0353 5.352C72.0206 5.38133 71.9986 5.418 71.9693 5.462H76.5233L76.4793 5.572H75.7753C75.7459 5.63067 75.7239 5.704 75.7093 5.792C75.6946 5.86533 75.6799 5.93867 75.6653 6.012H79.6033L79.5373 5.858ZM76.9413 10.522H74.1253L74.1913 10.852H72.4973C72.5266 10.94 72.5559 11.0207 72.5853 11.094C72.6146 11.1527 72.6513 11.2187 72.6953 11.292H73.9493C73.9786 11.336 74.0079 11.38 74.0373 11.424C74.0666 11.4533 74.0959 11.4827 74.1253 11.512H74.0813L74.1913 11.622H74.5653C74.5946 11.6367 74.6239 11.6587 74.6533 11.688C74.6826 11.7027 74.7119 11.7173 74.7413 11.732H75.0933C75.3426 11.864 75.6433 11.93 75.9953 11.93C76.3473 11.93 76.6406 11.864 76.8753 11.732H76.1493L76.3253 11.622H76.4573L76.5893 11.512H76.0173C76.0466 11.4827 76.0759 11.4533 76.1053 11.424C76.1493 11.38 76.1786 11.336 76.1933 11.292H76.4353C76.5233 11.16 76.5966 11.0133 76.6553 10.852H76.8093L76.8533 10.742C76.8826 10.654 76.9119 10.5807 76.9413 10.522ZM93.318 4.362H89.732V4.802H91.162V5.242H93.054V5.572H90.92V5.682H91.184V6.122H90.634V6.232H90.59V6.342H90.04V6.782H91.074V6.892H91.118V7.002H90.876V7.332H90.722V7.442H91.448V7.882H89.688V8.322H90.326V8.652H90.678V9.092H90.722V9.532H90.546V10.082H90.744V10.302H90.612V10.632H90.59V10.742H90.414V11.182H90.612V11.402H90.59V12.722H90.612V13.162H90.986V13.602H90.678V13.822H90.59V14.042H90.854V14.482H90.48V14.592H91.03V14.812H91.228V14.922H91.052V15.252H90.964V15.406C90.964 15.4353 90.9567 15.4647 90.942 15.494C90.942 15.5233 90.9347 15.5527 90.92 15.582H90.37C90.3554 15.6553 90.3114 15.7287 90.238 15.802H90.854C90.7954 15.8607 90.7514 15.8973 90.722 15.912H89.468C89.3947 15.9707 89.292 16 89.16 16H84.672C84.54 16 84.4374 15.9707 84.364 15.912H85.618C85.5594 15.8973 85.5154 15.8607 85.486 15.802H84.87C84.7967 15.7287 84.7527 15.6553 84.738 15.582H85.31C85.2954 15.538 85.288 15.4793 85.288 15.406V15.252H85.376V14.922H85.552V14.812H85.354V14.592H84.804V14.482H85.178V14.042H84.914V13.822H85.002V13.602H85.31V13.162H84.936V12.722H84.914V11.402H84.936V11.182H84.738V10.742H84.914V10.632H84.936V10.302H85.068V10.082H84.87V9.532H85.046V9.092H85.002V8.652H84.65V8.322H84.012V7.882H85.772V7.442H85.046V7.332H85.2V7.002H85.442V6.892H85.398V6.782H84.364V6.342H84.914V6.232H84.958V6.122H85.508V5.682H85.244V5.572H87.378V5.242H85.486V4.802H84.056V4.362H87.642V4.252H85.398V3.922H85.376V3.592H84.98V3.482H86.322V3.262H85.31V2.822H85.398V2.492H84.782V2.052H84.892V1.832H84.826V1.612H85.002V1.502H84.804V1.194C84.804 1.12067 84.8187 1.04 84.848 0.952H84.958C85.0607 0.717333 85.244 0.599999 85.508 0.599999H89.996C90.26 0.599999 90.4434 0.717333 90.546 0.952H90.436C90.4654 1.04 90.48 1.12067 90.48 1.194V1.502H90.678V1.612H90.502V1.832H90.568V2.052H90.458V2.492H91.074V2.822H90.986V3.262H91.998V3.482H90.656V3.592H91.052V3.922H91.074V4.252H93.318V4.362ZM107.358 7.222H106.28C106.265 7.28067 106.25 7.33933 106.236 7.398C106.221 7.442 106.199 7.49333 106.17 7.552H106.786L106.72 7.772H106.192C106.148 7.904 106.089 8.05067 106.016 8.212H105.686C105.627 8.35867 105.546 8.50533 105.444 8.652H105.488C105.429 8.72533 105.378 8.79867 105.334 8.872C105.29 8.94533 105.238 9.01867 105.18 9.092H107.556L107.27 9.422H105.312C105.253 9.49533 105.18 9.56867 105.092 9.642C105.004 9.71533 104.923 9.78867 104.85 9.862H105.136C105.077 9.92067 105.004 9.97933 104.916 10.038C104.842 10.082 104.769 10.1333 104.696 10.192H105.422L105.334 10.258L105.532 10.632H105.004L105.246 11.072H105.312L105.378 11.182H105.356L105.576 11.622H105.796L105.928 11.842H104.234L104.41 12.172H105.95L106.082 12.392H105.598L105.774 12.722H107.952L108.194 13.162H106.742L106.918 13.492H106.236L106.588 14.152H106.742L106.874 14.372H106.808L106.874 14.482H105.84L106.082 14.922L106.126 15.032H105.444L105.554 15.274C105.598 15.3327 105.62 15.3987 105.62 15.472H106.082V15.516C106.082 15.6773 106.016 15.8093 105.884 15.912H106.478C106.404 15.9707 106.309 16 106.192 16H101.682C101.594 16 101.513 15.9927 101.44 15.978C101.381 15.9487 101.315 15.9267 101.242 15.912H100.648C100.53 15.8533 100.428 15.78 100.34 15.692C100.266 15.604 100.208 15.5307 100.164 15.472H99.7236L99.6796 15.406L99.5256 15.032H100.23L100.164 14.922H98.0736V15.032H96.9516V15.472H98.7336C98.7043 15.6773 98.609 15.824 98.4476 15.912H98.2936C98.191 15.9707 98.081 16 97.9636 16H93.6516C93.5196 16 93.417 15.9707 93.3436 15.912H93.5196C93.3583 15.824 93.263 15.6773 93.2336 15.472H91.4736C91.4736 15.4573 91.4736 15.45 91.4736 15.45C91.459 15.4353 91.4516 15.4207 91.4516 15.406V15.032H92.5736V14.922H94.7736V14.482H92.4196V14.372H93.8056V14.152H93.3436V13.822H94.1136V13.492H92.8596V13.162H94.5536V12.722H93.5856V12.392H93.5636V12.282H93.4316V12.172H92.8376V11.842H93.5856V11.622H93.3876V11.182H93.4096V11.072H93.3436V10.632H93.8716V10.192H93.1236V9.862H92.8376V9.422H94.7736V9.092H92.3976V8.652H92.3536V8.212H92.6836V7.772H93.1896V7.552H92.5736V7.222H93.6516V7.002H95.2356V6.782H93.0576V6.672H93.1676V6.562H93.3656V6.452H93.3876V6.232H93.3436V5.902H93.4316V5.462H93.3216V5.242H93.4316V4.912H93.3436V4.802H93.4096V4.582H93.3876V4.472H93.2996V4.362H93.4976V4.032H93.6736V3.702H92.6396V3.262H92.8816V2.822H92.7496V2.492H93.3436V2.162H93.5636V1.832H93.1676V1.612H93.3216V1.502H93.3656V1.172H93.4096C93.4096 1.01067 93.4756 0.863999 93.6076 0.732H94.7956C94.8836 0.643999 95.0083 0.599999 95.1696 0.599999H101.682C102.312 0.599999 102.899 0.643999 103.442 0.732H102.276C102.862 0.82 103.42 0.966666 103.948 1.172H103.904C104.153 1.26 104.395 1.37 104.63 1.502H104.586L104.784 1.612H104.608C104.681 1.64133 104.74 1.678 104.784 1.722C104.842 1.766 104.901 1.80267 104.96 1.832H105.356C105.429 1.89067 105.502 1.94933 105.576 2.008C105.649 2.052 105.715 2.10333 105.774 2.162H105.554C105.627 2.22067 105.686 2.27933 105.73 2.338C105.788 2.382 105.847 2.43333 105.906 2.492H105.312C105.37 2.55067 105.422 2.60933 105.466 2.668C105.51 2.712 105.554 2.76333 105.598 2.822H105.708C105.825 2.96867 105.928 3.11533 106.016 3.262H105.796C105.84 3.32067 105.876 3.394 105.906 3.482C105.95 3.55533 105.994 3.62867 106.038 3.702H107.072L107.204 4.032H107.028C107.042 4.09067 107.057 4.14933 107.072 4.208C107.101 4.252 107.123 4.30333 107.138 4.362H106.918L106.962 4.472H107.05C107.064 4.50133 107.072 4.538 107.072 4.582L107.138 4.802H107.204C107.204 4.846 107.211 4.88267 107.226 4.912H107.248C107.262 4.97067 107.27 5.02933 107.27 5.088C107.284 5.132 107.292 5.18333 107.292 5.242H107.006C107.006 5.27133 107.006 5.308 107.006 5.352C107.006 5.396 107.013 5.43267 107.028 5.462H107.16C107.16 5.53533 107.16 5.60867 107.16 5.682C107.174 5.75533 107.182 5.82867 107.182 5.902V6.122H107.314V6.232H107.182V6.452H106.962C106.962 6.46667 106.954 6.48133 106.94 6.496C106.94 6.51067 106.94 6.53267 106.94 6.562H107.16C107.16 6.57667 107.152 6.59133 107.138 6.606C107.138 6.62067 107.138 6.64267 107.138 6.672H108.172C108.157 6.70133 108.15 6.738 108.15 6.782H108.436L108.414 7.002H107.402C107.372 7.09 107.358 7.16333 107.358 7.222ZM98.5576 6.782H100.736V7.002H99.1516V7.024H100.758C100.86 7.024 100.941 7.01667 101 7.002H102.012C102.173 6.958 102.32 6.88467 102.452 6.782H102.144L102.254 6.672H101.22C101.264 6.628 101.293 6.59133 101.308 6.562H101.088L101.154 6.452H101.374L101.44 6.232H101.55C101.564 6.20267 101.572 6.166 101.572 6.122H101.44L101.462 5.902C101.462 5.75533 101.44 5.60867 101.396 5.462H101.264C101.249 5.43267 101.234 5.396 101.22 5.352C101.22 5.308 101.205 5.27133 101.176 5.242H101.484C101.425 5.12467 101.344 5.01467 101.242 4.912H101.198C101.154 4.868 101.102 4.83133 101.044 4.802H100.978C100.831 4.72867 100.677 4.692 100.516 4.692H98.9096V4.802H98.8436V4.912H98.9316V5.242H98.8216V5.462H98.9316V5.902H98.8436V6.232H98.8876V6.452H98.8656V6.562H98.6676V6.672H98.5576V6.782ZM100.296 11.842L100.208 11.622H99.9656L99.7896 11.204H98.8876V11.622H99.0856V11.842H100.296ZM98.3376 11.842V12.172H98.7556L98.6236 11.842H98.3376ZM100.34 12.282L100.296 12.172H98.9316V12.282H99.0636V12.392H99.0856V12.722H100.054V13.162H98.3596V13.492H99.6136V13.822H98.8436V14.152H99.3056V14.372H97.9196V14.482H101.022L100.956 14.372H101.022L100.912 14.152H100.736L100.604 13.822L100.45 13.492H101.154L101 13.162H102.43L102.232 12.722H100.054L99.9216 12.392H100.406L100.34 12.282ZM126.823 5.462V5.572H126.295C126.31 5.64533 126.317 5.71867 126.317 5.792C126.317 5.86533 126.317 5.93867 126.317 6.012H122.467C122.467 6.20267 122.372 6.34933 122.181 6.452C122.093 6.48133 122.027 6.496 121.983 6.496H117.495C117.436 6.496 117.378 6.496 117.319 6.496C117.26 6.48133 117.202 6.46667 117.143 6.452H113.557V6.562H115.493C115.478 6.63533 115.471 6.70867 115.471 6.782C115.471 6.85533 115.471 6.92867 115.471 7.002H114.701C114.686 7.03133 114.679 7.068 114.679 7.112C114.679 7.156 114.679 7.19267 114.679 7.222H114.745V7.442H114.415V7.882H115.471V7.992H111.907V8.212H113.029V8.652H115.295V8.762H114.371V8.872H113.777V9.312H115.471C115.486 9.37067 115.493 9.42933 115.493 9.488C115.493 9.532 115.493 9.58333 115.493 9.642H116.109V9.752H113.271V9.972H112.633V10.082H115.493V10.104H119.893C120.172 10.104 120.333 10.2433 120.377 10.522H123.633V10.852H123.479L123.435 11.292H123.193L123.171 11.512H123.743C123.743 11.556 123.736 11.5927 123.721 11.622H123.589C123.574 11.6513 123.567 11.688 123.567 11.732H124.293L124.227 12.062H123.545C123.545 12.0767 123.538 12.0913 123.523 12.106C123.523 12.1207 123.523 12.1427 123.523 12.172H123.347C123.332 12.2307 123.31 12.2893 123.281 12.348C123.266 12.392 123.252 12.4433 123.237 12.502H123.501C123.501 12.5167 123.486 12.5533 123.457 12.612H123.017C122.988 12.6853 122.951 12.7587 122.907 12.832C122.878 12.9053 122.841 12.9787 122.797 13.052H123.237L123.039 13.382H123.237L123.017 13.712H122.885C122.826 13.7853 122.76 13.8587 122.687 13.932C122.628 14.0053 122.562 14.0787 122.489 14.152H122.313C122.298 14.1667 122.284 14.1813 122.269 14.196C122.254 14.2107 122.232 14.2327 122.203 14.262H121.257L121.147 14.372H125.569C125.481 14.4453 125.393 14.5187 125.305 14.592C125.217 14.6653 125.122 14.7387 125.019 14.812H124.777C124.63 14.9147 124.454 15.0247 124.249 15.142H119.607C119.46 15.23 119.306 15.3107 119.145 15.384C118.984 15.4427 118.822 15.5087 118.661 15.582H122.291C122.247 15.5967 122.196 15.6113 122.137 15.626C122.093 15.6407 122.042 15.6627 121.983 15.692H121.103C121.044 15.7067 120.986 15.7213 120.927 15.736C120.868 15.7507 120.81 15.7727 120.751 15.802H119.167C118.639 15.9487 118.096 16.0587 117.539 16.132H117.891C117.656 16.1613 117.414 16.1833 117.165 16.198C116.916 16.2127 116.666 16.22 116.417 16.22C116.138 16.22 115.867 16.2127 115.603 16.198C115.354 16.1833 115.104 16.1613 114.855 16.132H114.503C113.916 16.0587 113.374 15.9487 112.875 15.802H114.459C114.4 15.7727 114.342 15.7507 114.283 15.736C114.239 15.7213 114.188 15.7067 114.129 15.692H115.031L114.723 15.582H111.093C110.946 15.5087 110.792 15.4427 110.631 15.384C110.484 15.3107 110.338 15.23 110.191 15.142H114.855C114.767 15.0833 114.679 15.032 114.591 14.988C114.503 14.9293 114.422 14.8707 114.349 14.812H114.591C114.415 14.68 114.246 14.5333 114.085 14.372H109.641C109.626 14.3427 109.612 14.3207 109.597 14.306C109.582 14.2913 109.56 14.2767 109.531 14.262H110.499C110.484 14.2327 110.462 14.2107 110.433 14.196C110.418 14.1813 110.404 14.1667 110.389 14.152H110.565C110.433 14.0053 110.308 13.8587 110.191 13.712H110.323L110.125 13.382H109.927L109.729 13.052H109.289L109.091 12.612H109.553L109.509 12.502H109.223C109.208 12.4433 109.194 12.392 109.179 12.348C109.164 12.2893 109.142 12.2307 109.113 12.172H109.289L109.245 12.062H109.927C109.912 12.0033 109.898 11.952 109.883 11.908C109.868 11.8493 109.854 11.7907 109.839 11.732H109.487C109.472 11.7027 109.465 11.666 109.465 11.622H109.091C109.076 11.5927 109.069 11.556 109.069 11.512H109.091C109.091 11.4533 109.076 11.38 109.047 11.292H107.793L107.727 10.852H109.421C109.406 10.7933 109.399 10.742 109.399 10.698C109.399 10.6393 109.392 10.5807 109.377 10.522H109.795C109.795 10.478 109.795 10.434 109.795 10.39C109.795 10.346 109.788 10.302 109.773 10.258V10.082H106.913V9.972H107.551V9.752H110.389V9.642H109.773C109.773 9.58333 109.766 9.532 109.751 9.488C109.751 9.42933 109.751 9.37067 109.751 9.312H108.057V8.872H108.651V8.762H109.575V8.652H107.309V8.212H106.187V7.992H109.751V7.882H108.695V7.442H109.025V7.222H108.959V7.002H109.751V6.562H107.837V6.452H112.061V6.342C112.076 6.28333 112.083 6.232 112.083 6.188C112.083 6.12933 112.083 6.07067 112.083 6.012H110.917C110.917 5.93867 110.917 5.86533 110.917 5.792C110.932 5.71867 110.946 5.64533 110.961 5.572H111.665C111.68 5.54267 111.687 5.506 111.687 5.462H107.133C107.148 5.43267 107.155 5.396 107.155 5.352C107.155 5.308 107.162 5.27133 107.177 5.242H111.181L111.291 4.802H110.389L110.455 4.582H108.981L109.025 4.472H109.509C109.524 4.44267 109.538 4.406 109.553 4.362C109.568 4.318 109.582 4.28133 109.597 4.252H109.355L109.443 4.032H109.553C109.582 3.97333 109.612 3.922 109.641 3.878C109.67 3.81933 109.692 3.76067 109.707 3.702H109.729L109.927 3.372H109.861C109.89 3.31333 109.92 3.262 109.949 3.218C109.993 3.15933 110.037 3.10067 110.081 3.042H109.905C109.964 2.96867 110.022 2.89533 110.081 2.822C110.14 2.734 110.198 2.66067 110.257 2.602H110.059C110.074 2.57267 110.088 2.55067 110.103 2.536C110.118 2.52133 110.132 2.50667 110.147 2.492H109.927L110.037 2.382H109.993C110.022 2.35267 110.044 2.33067 110.059 2.316C110.074 2.30133 110.088 2.28667 110.103 2.272H109.707C109.736 2.24267 109.773 2.206 109.817 2.162C109.861 2.118 109.905 2.08133 109.949 2.052H110.477C110.55 1.99333 110.624 1.942 110.697 1.898C110.77 1.83933 110.844 1.78067 110.917 1.722H110.675L110.851 1.612H110.477C110.506 1.58267 110.536 1.56067 110.565 1.546C110.594 1.53133 110.624 1.51667 110.653 1.502H111.797C111.9 1.44333 112.002 1.392 112.105 1.348C112.208 1.28933 112.31 1.23067 112.413 1.172H112.347C112.435 1.128 112.523 1.09133 112.611 1.062C112.699 1.018 112.787 0.981333 112.875 0.952H113.293C113.337 0.922666 113.381 0.900666 113.425 0.885999C113.484 0.871333 113.542 0.856666 113.601 0.842H112.941C113.381 0.680666 113.85 0.570666 114.349 0.511999H114.943C115.515 0.423999 116.116 0.379999 116.747 0.379999C117.363 0.379999 117.957 0.423999 118.529 0.511999H117.957C118.441 0.570666 118.925 0.680666 119.409 0.842H120.069C120.128 0.856666 120.179 0.871333 120.223 0.885999C120.282 0.900666 120.34 0.922666 120.399 0.952H119.981C120.201 1.02533 120.384 1.09867 120.531 1.172H120.597C120.714 1.23067 120.824 1.28933 120.927 1.348C121.03 1.392 121.132 1.44333 121.235 1.502H120.113C120.142 1.51667 120.172 1.53133 120.201 1.546C120.23 1.56067 120.26 1.58267 120.289 1.612H120.663C120.692 1.62667 120.722 1.64133 120.751 1.656C120.78 1.67067 120.802 1.69267 120.817 1.722H121.059L121.499 2.052H120.949L121.213 2.272H121.609L121.741 2.382H121.763L121.873 2.492H122.093L122.203 2.602H122.401C122.46 2.66067 122.518 2.734 122.577 2.822C122.636 2.89533 122.694 2.96867 122.753 3.042H122.907C122.951 3.10067 122.988 3.15933 123.017 3.218C123.061 3.262 123.098 3.31333 123.127 3.372H123.193C123.222 3.43067 123.252 3.48933 123.281 3.548C123.31 3.592 123.34 3.64333 123.369 3.702H123.325C123.354 3.76067 123.384 3.81933 123.413 3.878C123.442 3.922 123.464 3.97333 123.479 4.032H123.369L123.435 4.252H123.677L123.743 4.472H123.259C123.259 4.48667 123.259 4.50133 123.259 4.516C123.274 4.53067 123.281 4.55267 123.281 4.582H124.755C124.755 4.64067 124.77 4.714 124.799 4.802H122.797L122.863 5.242H124.139L124.161 5.462H126.823ZM116.725 4.802H118.287C118.052 4.714 117.788 4.67 117.495 4.67C117.202 4.67 116.945 4.714 116.725 4.802ZM120.531 5.858C120.516 5.79933 120.502 5.748 120.487 5.704C120.472 5.66 120.45 5.616 120.421 5.572H120.949L120.883 5.462H118.243C118.228 5.418 118.206 5.38133 118.177 5.352C118.148 5.308 118.118 5.27133 118.089 5.242H113.095C113.08 5.27133 113.058 5.308 113.029 5.352C113.014 5.38133 112.992 5.418 112.963 5.462H117.517L117.473 5.572H116.769C116.74 5.63067 116.718 5.704 116.703 5.792C116.688 5.86533 116.674 5.93867 116.659 6.012H120.597L120.531 5.858ZM117.935 10.522H115.119L115.185 10.852H113.491C113.52 10.94 113.55 11.0207 113.579 11.094C113.608 11.1527 113.645 11.2187 113.689 11.292H114.943C114.972 11.336 115.002 11.38 115.031 11.424C115.06 11.4533 115.09 11.4827 115.119 11.512H115.075L115.185 11.622H115.559C115.588 11.6367 115.618 11.6587 115.647 11.688C115.676 11.7027 115.706 11.7173 115.735 11.732H116.087C116.336 11.864 116.637 11.93 116.989 11.93C117.341 11.93 117.634 11.864 117.869 11.732H117.143L117.319 11.622H117.451L117.583 11.512H117.011C117.04 11.4827 117.07 11.4533 117.099 11.424C117.143 11.38 117.172 11.336 117.187 11.292H117.429C117.517 11.16 117.59 11.0133 117.649 10.852H117.803L117.847 10.742C117.876 10.654 117.906 10.5807 117.935 10.522ZM125.468 1.172C125.483 1.128 125.49 1.09133 125.49 1.062C125.505 1.018 125.519 0.981333 125.534 0.952H123.114C123.143 0.907999 123.173 0.871333 123.202 0.842C123.231 0.797999 123.261 0.761333 123.29 0.732H125.842C125.959 0.643999 126.084 0.599999 126.216 0.599999H130.616C130.777 0.599999 130.902 0.643999 130.99 0.732H128.438C128.467 0.761333 128.497 0.797999 128.526 0.842C128.57 0.871333 128.599 0.907999 128.614 0.952H131.012C131.041 1.04 131.056 1.11333 131.056 1.172H132.288C132.303 1.172 132.31 1.17933 132.31 1.194V1.392H129.34V1.832H130.572V2.162H130.44V2.602H129.648V3.042H131.43V3.152H131.562V3.592H131.65V4.032H131.496V4.472H131.386V5.022H131.76V5.462H131.342V5.902H131.43V6.012H132.992V6.452H133.806V6.672H130.418V6.892H131.54V7.332H130.616V7.772H131.408V7.992H131.562V8.322H134.51V8.542H136.556V8.982H130.968V8.542H128.922V8.322H125.974V7.992H125.82V7.772H125.028V7.332H125.952V6.892H124.83V6.672H128.218V6.452H127.404V6.012H125.842V5.902H125.754V5.462H126.172V5.022H125.798V4.472H125.908V4.032H126.062V3.592H125.974V3.152H125.842V3.042H124.06V2.602H124.852V2.162H124.984V1.832H123.752V1.392H126.722V1.172H125.468ZM140.098 13.052H134.092V13.162H134.532V13.492H137.656V13.602H136.688V14.042H138.228V14.372H138.448V14.482H138.294V14.592H138.228V15.032H138.272V15.362H138.184V15.472H138.074C138.059 15.5013 138.052 15.538 138.052 15.582H138.294C138.25 15.7287 138.169 15.8387 138.052 15.912H137.81C137.737 15.9707 137.634 16 137.502 16H126.414C126.282 16 126.179 15.9707 126.106 15.912H126.326C126.194 15.8387 126.106 15.7287 126.062 15.582H125.82C125.82 15.5527 125.813 15.5307 125.798 15.516C125.798 15.5013 125.798 15.4867 125.798 15.472H125.908V15.362H125.996V15.032H125.952V14.592H126.018V14.482H126.172V14.372H125.952V14.042H124.412V13.602H125.38V13.492H122.256V13.162H121.816V13.052H127.822V12.722H125.38V12.392H127.756V12.282H122.564V11.952H123.312V11.842H126.172V11.732H125.16V11.402H126.876V10.962H125.138V10.742H126.568V10.632H125.908V10.302H126.546V10.082H125.732V9.862H127.646V9.532H128.196V9.312H125.182V8.982H130.77V9.312H133.784V9.532H133.234V9.862H131.32V10.082H132.134V10.302H131.496V10.632H132.156V10.742H130.726V10.962H132.464V11.402H130.748V11.49H136.842C137.047 11.49 137.209 11.5707 137.326 11.732H138.338L138.404 11.842H135.544L135.588 11.952H134.818C134.833 11.9813 134.84 12.0253 134.84 12.084V12.282H140.032V12.392H137.656V12.722H140.098V13.052ZM153.913 12.172H155.651V12.502H152.307V12.942H154.463V13.382H152.571V13.822H152.813V14.152H152.659V14.372H152.197V14.592H152.175V14.812H152.637V15.252H153.275V15.406C153.275 15.4353 153.268 15.4573 153.253 15.472H149.337C149.323 15.5013 149.315 15.538 149.315 15.582H150.833C150.789 15.7287 150.709 15.8387 150.591 15.912H150.173C150.1 15.9707 149.997 16 149.865 16H138.403C138.286 16 138.176 15.9707 138.073 15.912H138.491C138.389 15.8387 138.308 15.7287 138.249 15.582H136.709C136.695 15.5527 136.687 15.516 136.687 15.472H140.625V15.252H139.987V14.812H139.525V14.592H139.547V14.372H140.009V14.152H140.163V13.822H139.921V13.382H141.813V12.942H139.657V12.502H143.001V12.172H141.263V11.952H141.769V11.732H141.989V11.512H139.547V11.292H138.975V10.962H141.021V10.852H139.393V10.632H139.877V10.412H140.229V10.082H140.185V9.642H139.965V9.202H139.635V8.982H139.899V8.542H139.657V8.322H140.009V7.992H140.097V7.662H140.493V7.552H140.119V7.112H139.789V6.782H139.877V6.452H139.921V6.012H140.251V5.572H139.767V5.132H139.833V4.692H140.449V4.362H140.119V4.032H139.943V3.922H140.867V3.592H142.495V3.372H141.835V3.152H139.701V3.042H139.943V2.712H139.965V2.382H140.031V1.942H140.009V1.392H139.965V1.194C139.965 1.13533 139.973 1.09133 139.987 1.062H139.767C139.826 0.753999 140.017 0.599999 140.339 0.599999H151.625C151.963 0.599999 152.153 0.753999 152.197 1.062H152.417C152.432 1.09133 152.439 1.13533 152.439 1.194V1.392H152.483V1.942H152.505V2.382H152.439V2.712H152.417V3.042H152.175V3.152H154.309V3.372H154.969V3.592H153.341V3.922H152.417V4.032H152.593V4.362H152.923C152.894 4.50867 152.843 4.61867 152.769 4.692H152.153C152.051 4.824 151.904 4.89 151.713 4.89H145.113V5.132H145.047V5.572H145.531V6.012H145.201V6.276H151.317C151.479 6.276 151.618 6.33467 151.735 6.452H151.691C151.765 6.52533 151.816 6.63533 151.845 6.782H151.779V7.112H152.109V7.552H152.483V7.662H152.087V7.992H151.999V8.322H151.647V8.542H151.889V8.982H151.625V9.202H151.955V9.642H152.175V9.73C152.175 9.89133 152.139 10.0087 152.065 10.082H152.109C151.992 10.2433 151.831 10.324 151.625 10.324H145.509V10.412H145.157V10.632H144.673V10.852H146.301V10.962H144.255V11.292H144.827V11.512H147.269V11.71H154.045C154.119 11.71 154.177 11.7173 154.221 11.732H153.979C154.126 11.776 154.236 11.8493 154.309 11.952H153.803C153.862 12.04 153.899 12.1133 153.913 12.172Z" fill="#FFBE31"/>
</svg>
