<svg width="98" height="71" viewBox="0 0 98 71" fill="none" xmlns="http://www.w3.org/2000/svg">
<path d="M12.425 71C5.56286 71 0 65.4371 0 58.575C0 56.0604 0.649621 53.7492 1.94886 51.6414C3.24811 49.5336 4.97424 47.925 7.12727 46.8156C11.7303 44.5229 16.4076 42.8034 21.1591 41.657C25.9106 40.5107 30.7364 39.9375 35.6364 39.9375C40.5364 39.9375 45.3621 40.5107 50.1136 41.657C54.8652 42.8034 59.5424 44.5229 64.1455 46.8156C66.2985 47.925 68.0246 49.5336 69.3239 51.6414C70.6231 53.7492 71.2727 56.0604 71.2727 58.575C71.2727 65.4371 65.7099 71 58.8477 71H12.425ZM89.0909 71C84.1706 71 80.1818 67.0113 80.1818 62.0909V57.6875C80.1818 54.4333 79.2724 51.3086 77.4534 48.3133C76.0614 46.0211 77.8511 42.0577 80.4045 42.8773C83.7455 43.9497 86.8636 45.2625 89.7591 46.8156C92.4318 48.2948 94.4735 49.9404 95.8841 51.7523C97.2947 53.5643 98 55.5427 98 57.6875V62.0909C98 67.0113 94.0113 71 89.0909 71ZM35.6364 35.5C30.7364 35.5 26.5417 33.762 23.0523 30.2859C19.5629 26.8099 17.8182 22.6313 17.8182 17.75C17.8182 12.8687 19.5629 8.6901 23.0523 5.21406C26.5417 1.73802 30.7364 0 35.6364 0C40.5364 0 44.7311 1.73802 48.2205 5.21406C51.7098 8.6901 53.4545 12.8687 53.4545 17.75C53.4545 22.6313 51.7098 26.8099 48.2205 30.2859C44.7311 33.762 40.5364 35.5 35.6364 35.5ZM80.1818 17.75C80.1818 22.6313 78.4371 26.8099 74.9477 30.2859C71.4583 33.762 67.2636 35.5 62.3636 35.5C61.547 35.5 60.5076 35.4076 59.2455 35.2227C57.7804 35.008 57.2182 33.3067 58.0354 32.072C59.139 30.4044 60.0435 28.6257 60.7489 26.7359C61.8254 23.8516 62.3636 20.8563 62.3636 17.75C62.3636 14.6438 61.8254 11.6484 60.7489 8.76406C60.0469 6.88334 59.1477 5.11268 58.0513 3.45206C57.1968 2.15807 57.7036 0.330974 59.2455 0.166406C60.2849 0.0554688 61.3242 0 62.3636 0C67.2636 0 71.4583 1.73802 74.9477 5.21406C78.4371 8.6901 80.1818 12.8687 80.1818 17.75ZM8.90909 58.575C8.90909 60.5356 10.4985 62.125 12.4591 62.125H58.8136C60.7743 62.125 62.3636 60.5356 62.3636 58.575C62.3636 57.7615 62.1595 57.0219 61.7511 56.3563C61.3428 55.6906 60.8045 55.1729 60.1364 54.8031C56.1273 52.8063 52.0811 51.3086 47.9977 50.3102C43.9144 49.3117 39.7939 48.8125 35.6364 48.8125C31.4788 48.8125 27.3583 49.3117 23.275 50.3102C19.1917 51.3086 15.1455 52.8063 11.1364 54.8031C10.4682 55.1729 9.92992 55.6906 9.52159 56.3563C9.11326 57.0219 8.90909 57.7615 8.90909 58.575ZM35.6364 26.625C38.0864 26.625 40.1837 25.756 41.9284 24.018C43.6731 22.2799 44.5455 20.1906 44.5455 17.75C44.5455 15.3094 43.6731 13.2201 41.9284 11.482C40.1837 9.74401 38.0864 8.875 35.6364 8.875C33.1864 8.875 31.089 9.74401 29.3443 11.482C27.5996 13.2201 26.7273 15.3094 26.7273 17.75C26.7273 20.1906 27.5996 22.2799 29.3443 24.018C31.089 25.756 33.1864 26.625 35.6364 26.625Z" fill="#F1B739"/>
<path d="M12.425 71C5.56286 71 0 65.4371 0 58.575C0 56.0604 0.649621 53.7492 1.94886 51.6414C3.24811 49.5336 4.97424 47.925 7.12727 46.8156C11.7303 44.5229 16.4076 42.8034 21.1591 41.657C25.9106 40.5107 30.7364 39.9375 35.6364 39.9375C40.5364 39.9375 45.3621 40.5107 50.1136 41.657C54.8652 42.8034 59.5424 44.5229 64.1455 46.8156C66.2985 47.925 68.0246 49.5336 69.3239 51.6414C70.6231 53.7492 71.2727 56.0604 71.2727 58.575C71.2727 65.4371 65.7099 71 58.8477 71H12.425ZM89.0909 71C84.1706 71 80.1818 67.0113 80.1818 62.0909V57.6875C80.1818 54.4333 79.2724 51.3086 77.4534 48.3133C76.0614 46.0211 77.8511 42.0577 80.4045 42.8773C83.7455 43.9497 86.8636 45.2625 89.7591 46.8156C92.4318 48.2948 94.4735 49.9404 95.8841 51.7523C97.2947 53.5643 98 55.5427 98 57.6875V62.0909C98 67.0113 94.0113 71 89.0909 71ZM35.6364 35.5C30.7364 35.5 26.5417 33.762 23.0523 30.2859C19.5629 26.8099 17.8182 22.6313 17.8182 17.75C17.8182 12.8687 19.5629 8.6901 23.0523 5.21406C26.5417 1.73802 30.7364 0 35.6364 0C40.5364 0 44.7311 1.73802 48.2205 5.21406C51.7098 8.6901 53.4545 12.8687 53.4545 17.75C53.4545 22.6313 51.7098 26.8099 48.2205 30.2859C44.7311 33.762 40.5364 35.5 35.6364 35.5ZM80.1818 17.75C80.1818 22.6313 78.4371 26.8099 74.9477 30.2859C71.4583 33.762 67.2636 35.5 62.3636 35.5C61.547 35.5 60.5076 35.4076 59.2455 35.2227C57.7804 35.008 57.2182 33.3067 58.0354 32.072C59.139 30.4044 60.0435 28.6257 60.7489 26.7359C61.8254 23.8516 62.3636 20.8563 62.3636 17.75C62.3636 14.6438 61.8254 11.6484 60.7489 8.76406C60.0469 6.88334 59.1477 5.11268 58.0513 3.45206C57.1968 2.15807 57.7036 0.330974 59.2455 0.166406C60.2849 0.0554688 61.3242 0 62.3636 0C67.2636 0 71.4583 1.73802 74.9477 5.21406C78.4371 8.6901 80.1818 12.8687 80.1818 17.75ZM8.90909 58.575C8.90909 60.5356 10.4985 62.125 12.4591 62.125H58.8136C60.7743 62.125 62.3636 60.5356 62.3636 58.575C62.3636 57.7615 62.1595 57.0219 61.7511 56.3563C61.3428 55.6906 60.8045 55.1729 60.1364 54.8031C56.1273 52.8063 52.0811 51.3086 47.9977 50.3102C43.9144 49.3117 39.7939 48.8125 35.6364 48.8125C31.4788 48.8125 27.3583 49.3117 23.275 50.3102C19.1917 51.3086 15.1455 52.8063 11.1364 54.8031C10.4682 55.1729 9.92992 55.6906 9.52159 56.3563C9.11326 57.0219 8.90909 57.7615 8.90909 58.575ZM35.6364 26.625C38.0864 26.625 40.1837 25.756 41.9284 24.018C43.6731 22.2799 44.5455 20.1906 44.5455 17.75C44.5455 15.3094 43.6731 13.2201 41.9284 11.482C40.1837 9.74401 38.0864 8.875 35.6364 8.875C33.1864 8.875 31.089 9.74401 29.3443 11.482C27.5996 13.2201 26.7273 15.3094 26.7273 17.75C26.7273 20.1906 27.5996 22.2799 29.3443 24.018C31.089 25.756 33.1864 26.625 35.6364 26.625Z" stroke="black"/>
</svg>
